<svg version="1.1" viewBox="0.0 0.0 1152.0 864.0" fill="none" stroke="none" stroke-linecap="square" stroke-miterlimit="10" xmlns:xlink="http://www.w3.org/1999/xlink" xmlns="http://www.w3.org/2000/svg"><clipPath id="p.0"><path d="m0 0l1152.0 0l0 864.0l-1152.0 0l0 -864.0z" clip-rule="nonzero"/></clipPath><g clip-path="url(#p.0)"><path fill="#000000" fill-opacity="0.0" d="m0 0l1152.0 0l0 864.0l-1152.0 0z" fill-rule="evenodd"/><path fill="#f4cccc" d="m420.51837 95.4504l0 0c0 -7.419029 6.0143127 -13.433342 13.43335 -13.433342l129.19629 0c3.5627441 0 6.979553 1.4152985 9.49884 3.9345322c2.519226 2.5192413 3.9345093 5.9360657 3.9345093 9.49881l0 53.731743c0 7.419037 -6.014282 13.433334 -13.43335 13.433334l-129.19629 0c-7.419037 0 -13.43335 -6.0142975 -13.43335 -13.433334z" fill-rule="evenodd"/><path stroke="#000000" stroke-width="1.0" stroke-linejoin="round" stroke-linecap="butt" d="m420.51837 95.4504l0 0c0 -7.419029 6.0143127 -13.433342 13.43335 -13.433342l129.19629 0c3.5627441 0 6.979553 1.4152985 9.49884 3.9345322c2.519226 2.5192413 3.9345093 5.9360657 3.9345093 9.49881l0 53.731743c0 7.419037 -6.014282 13.433334 -13.43335 13.433334l-129.19629 0c-7.419037 0 -13.43335 -6.0142975 -13.43335 -13.433334z" fill-rule="evenodd"/><path fill="#fff2cc" d="m510.09317 102.93044l57.480316 0l0 38.77166l-57.480316 0z" fill-rule="evenodd"/><path stroke="#000000" stroke-width="1.0" stroke-linejoin="round" stroke-linecap="butt" d="m510.09317 102.93044l57.480316 0l0 38.77166l-57.480316 0z" fill-rule="evenodd"/><path fill="#000000" d="m530.46277 129.23627l0 -1.453125q-0.53125 0.78125 -1.390625 1.234375q-0.859375 0.4375 -1.8125 0.4375q-0.96875 0 -1.75 -0.421875q-0.765625 -0.4375 -1.125 -1.203125q-0.34375 -0.78125 -0.34375 -2.140625l0 -6.125l2.5625 0l0 4.4375q0 2.046875 0.140625 2.515625q0.140625 0.453125 0.515625 0.71875q0.375 0.265625 0.953125 0.265625q0.65625 0 1.171875 -0.359375q0.515625 -0.359375 0.703125 -0.890625q0.203125 -0.53125 0.203125 -2.609375l0 -4.078125l2.546875 0l0 9.671875l-2.375 0zm3.520935 3.6875l0 -1.65625l10.640625 0l0 1.65625l-10.640625 0zm19.985107 -6.0625l0 2.375l-8.96875 0q0.140625 -1.34375 0.859375 -2.546875q0.734375 -1.21875 2.890625 -3.203125q1.734375 -1.625 2.125 -2.1875q0.53125 -0.796875 0.53125 -1.578125q0 -0.84375 -0.46875 -1.296875q-0.453125 -0.46875 -1.265625 -0.46875q-0.796875 0 -1.28125 0.484375q-0.46875 0.46875 -0.546875 1.59375l-2.546875 -0.25q0.234375 -2.109375 1.421875 -3.03125q1.203125 -0.921875 3.015625 -0.921875q1.96875 0 3.09375 1.0625q1.140625 1.0625 1.140625 2.65625q0 0.890625 -0.328125 1.71875q-0.3125 0.8125 -1.015625 1.703125q-0.46875 0.59375 -1.6875 1.703125q-1.203125 1.109375 -1.53125 1.484375q-0.3125 0.359375 -0.515625 0.703125l5.078125 0z" fill-rule="nonzero"/><path fill="#fff2cc" d="m429.52625 102.93044l57.480316 0l0 38.77166l-57.480316 0z" fill-rule="evenodd"/><path stroke="#000000" stroke-width="1.0" stroke-linejoin="round" stroke-linecap="butt" d="m429.52625 102.93044l57.480316 0l0 38.77166l-57.480316 0z" fill-rule="evenodd"/><path fill="#000000" d="m445.95282 122.51752l-2.328125 -0.421875q0.40625 -1.40625 1.359375 -2.078125q0.953125 -0.671875 2.84375 -0.671875q1.703125 0 2.546875 0.40625q0.84375 0.40625 1.171875 1.03125q0.34375 0.625 0.34375 2.28125l-0.015625 3.0q0 1.265625 0.109375 1.875q0.125 0.609375 0.46875 1.296875l-2.53125 0q-0.109375 -0.25 -0.25 -0.75q-0.0625 -0.234375 -0.09375 -0.3125q-0.65625 0.640625 -1.40625 0.96875q-0.734375 0.3125 -1.59375 0.3125q-1.484375 0 -2.34375 -0.8125q-0.859375 -0.8125 -0.859375 -2.046875q0 -0.828125 0.390625 -1.46875q0.390625 -0.640625 1.09375 -0.96875q0.703125 -0.34375 2.03125 -0.609375q1.796875 -0.328125 2.484375 -0.625l0 -0.25q0 -0.75 -0.359375 -1.0625q-0.359375 -0.3125 -1.375 -0.3125q-0.6875 0 -1.078125 0.28125q-0.375 0.265625 -0.609375 0.9375zm3.421875 2.078125q-0.484375 0.15625 -1.5625 0.390625q-1.0625 0.21875 -1.390625 0.4375q-0.5 0.359375 -0.5 0.90625q0 0.53125 0.40625 0.9375q0.40625 0.390625 1.015625 0.390625q0.703125 0 1.328125 -0.46875q0.46875 -0.34375 0.609375 -0.84375q0.09375 -0.328125 0.09375 -1.25l0 -0.5zm3.5319824 8.328125l0 -1.65625l10.640625 0l0 1.65625l-10.640625 0zm19.985077 -6.0625l0 2.375l-8.96875 0q0.140625 -1.34375 0.859375 -2.546875q0.734375 -1.21875 2.890625 -3.203125q1.734375 -1.625 2.125 -2.1875q0.53125 -0.796875 0.53125 -1.578125q0 -0.84375 -0.46875 -1.296875q-0.453125 -0.46875 -1.265625 -0.46875q-0.796875 0 -1.28125 0.484375q-0.46875 0.46875 -0.546875 1.59375l-2.546875 -0.25q0.234375 -2.109375 1.421875 -3.03125q1.203125 -0.921875 3.015625 -0.921875q1.96875 0 3.09375 1.0625q1.140625 1.0625 1.140625 2.65625q0 0.890625 -0.328125 1.71875q-0.3125 0.8125 -1.015625 1.703125q-0.46875 0.59375 -1.6875 1.703125q-1.203125 1.109375 -1.53125 1.484375q-0.3125 0.359375 -0.515625 0.703125l5.078125 0z" fill-rule="nonzero"/><path fill="#000000" fill-opacity="0.0" d="m510.09317 122.31628l-23.086609 0" fill-rule="evenodd"/><path stroke="#000000" stroke-width="1.0" stroke-linejoin="round" stroke-linecap="butt" d="m510.09317 122.31628l-17.086609 0" fill-rule="evenodd"/><path fill="#000000" stroke="#000000" stroke-width="1.0" stroke-linecap="butt" d="m493.00656 120.66454l-4.538086 1.6517334l4.538086 1.6517258z" fill-rule="evenodd"/><path fill="#f4cccc" d="m198.9672 143.37297l0 0c0 -7.4190216 6.0143127 -13.433334 13.433334 -13.433334l129.1963 0c3.5627441 0 6.9795837 1.4152832 9.49881 3.9345245c2.5192566 2.5192413 3.9345398 5.9360657 3.9345398 9.49881l0 53.73175c0 7.4190216 -6.0143127 13.433334 -13.43335 13.433334l-129.1963 0c-7.4190216 0 -13.433334 -6.0143127 -13.433334 -13.433334z" fill-rule="evenodd"/><path stroke="#000000" stroke-width="1.0" stroke-linejoin="round" stroke-linecap="butt" d="m198.9672 143.37297l0 0c0 -7.4190216 6.0143127 -13.433334 13.433334 -13.433334l129.1963 0c3.5627441 0 6.9795837 1.4152832 9.49881 3.9345245c2.5192566 2.5192413 3.9345398 5.9360657 3.9345398 9.49881l0 53.73175c0 7.4190216 -6.0143127 13.433334 -13.43335 13.433334l-129.1963 0c-7.4190216 0 -13.433334 -6.0143127 -13.433334 -13.433334z" fill-rule="evenodd"/><path fill="#cfe2f3" d="m428.1496 489.99475l0 0c0 -13.333099 45.21338 -24.141724 100.98688 -24.141724c55.7735 0 100.98688 10.808624 100.98688 24.141724l0 96.566956c0 13.333069 -45.21338 24.141724 -100.98688 24.141724c-55.7735 0 -100.98688 -10.808655 -100.98688 -24.141724z" fill-rule="evenodd"/><path fill="#000000" fill-opacity="0.0" d="m630.12335 489.99475l0 0c0 13.333099 -45.21338 24.141724 -100.98688 24.141724c-55.7735 0 -100.98688 -10.808624 -100.98688 -24.141724" fill-rule="evenodd"/><path fill="#000000" fill-opacity="0.0" d="m428.1496 489.99475l0 0c0 -13.333099 45.21338 -24.141724 100.98688 -24.141724c55.7735 0 100.98688 10.808624 100.98688 24.141724l0 96.566956c0 13.333069 -45.21338 24.141724 -100.98688 24.141724c-55.7735 0 -100.98688 -10.808655 -100.98688 -24.141724z" fill-rule="evenodd"/><path stroke="#000000" stroke-width="1.0" stroke-linejoin="round" stroke-linecap="butt" d="m630.12335 489.99475l0 0c0 13.333099 -45.21338 24.141724 -100.98688 24.141724c-55.7735 0 -100.98688 -10.808624 -100.98688 -24.141724" fill-rule="evenodd"/><path stroke="#000000" stroke-width="1.0" stroke-linejoin="round" stroke-linecap="butt" d="m428.1496 489.99475l0 0c0 -13.333099 45.21338 -24.141724 100.98688 -24.141724c55.7735 0 100.98688 10.808624 100.98688 24.141724l0 96.566956c0 13.333069 -45.21338 24.141724 -100.98688 24.141724c-55.7735 0 -100.98688 -10.808655 -100.98688 -24.141724z" fill-rule="evenodd"/><path fill="#000000" d="m494.18497 557.2691l0 -1.421875q-1.125 1.640625 -3.0625 1.640625q-0.859375 0 -1.609375 -0.328125q-0.734375 -0.328125 -1.09375 -0.828125q-0.359375 -0.5 -0.5 -1.21875q-0.109375 -0.46875 -0.109375 -1.53125l0 -5.984375l1.640625 0l0 5.359375q0 1.28125 0.109375 1.734375q0.15625 0.640625 0.65625 1.015625q0.5 0.375 1.234375 0.375q0.734375 0 1.375 -0.375q0.65625 -0.390625 0.921875 -1.03125q0.265625 -0.65625 0.265625 -1.890625l0 -5.1875l1.640625 0l0 9.671875l-1.46875 0zm3.391327 -2.890625l1.625 -0.25q0.125 0.96875 0.75 1.5q0.625 0.515625 1.75 0.515625q1.125 0 1.671875 -0.453125q0.546875 -0.46875 0.546875 -1.09375q0 -0.546875 -0.484375 -0.875q-0.328125 -0.21875 -1.671875 -0.546875q-1.8125 -0.46875 -2.515625 -0.796875q-0.6875 -0.328125 -1.046875 -0.90625q-0.359375 -0.59375 -0.359375 -1.3125q0 -0.640625 0.296875 -1.1875q0.296875 -0.5625 0.8125 -0.921875q0.375 -0.28125 1.03125 -0.46875q0.671875 -0.203125 1.421875 -0.203125q1.140625 0 2.0 0.328125q0.859375 0.328125 1.265625 0.890625q0.421875 0.5625 0.578125 1.5l-1.609375 0.21875q-0.109375 -0.75 -0.640625 -1.171875q-0.515625 -0.421875 -1.46875 -0.421875q-1.140625 0 -1.625 0.375q-0.46875 0.375 -0.46875 0.875q0 0.3125 0.1875 0.578125q0.203125 0.265625 0.640625 0.4375q0.234375 0.09375 1.4375 0.421875q1.75 0.453125 2.4375 0.75q0.6875 0.296875 1.078125 0.859375q0.390625 0.5625 0.390625 1.40625q0 0.828125 -0.484375 1.546875q-0.46875 0.71875 -1.375 1.125q-0.90625 0.390625 -2.046875 0.390625q-1.875 0 -2.875 -0.78125q-0.984375 -0.78125 -1.25 -2.328125zm16.609375 -0.21875l1.6875 0.203125q-0.40625 1.484375 -1.484375 2.3125q-1.078125 0.8125 -2.765625 0.8125q-2.125 0 -3.375 -1.296875q-1.234375 -1.3125 -1.234375 -3.671875q0 -2.453125 1.25 -3.796875q1.265625 -1.34375 3.265625 -1.34375q1.9375 0 3.15625 1.328125q1.234375 1.3125 1.234375 3.703125q0 0.15625 0 0.4375l-7.21875 0q0.09375 1.59375 0.90625 2.453125q0.8125 0.84375 2.015625 0.84375q0.90625 0 1.546875 -0.46875q0.640625 -0.484375 1.015625 -1.515625zm-5.390625 -2.65625l5.40625 0q-0.109375 -1.21875 -0.625 -1.828125q-0.78125 -0.953125 -2.03125 -0.953125q-1.125 0 -1.90625 0.765625q-0.765625 0.75 -0.84375 2.015625zm9.125732 5.765625l0 -9.671875l1.46875 0l0 1.46875q0.5625 -1.03125 1.03125 -1.359375q0.484375 -0.328125 1.0625 -0.328125q0.828125 0 1.6875 0.53125l-0.5625 1.515625q-0.609375 -0.359375 -1.203125 -0.359375q-0.546875 0 -0.96875 0.328125q-0.421875 0.328125 -0.609375 0.890625q-0.28125 0.875 -0.28125 1.921875l0 5.0625l-1.625 0zm6.2126465 0l0 -9.671875l1.46875 0l0 1.46875q0.5625 -1.03125 1.03125 -1.359375q0.484375 -0.328125 1.0625 -0.328125q0.828125 0 1.6875 0.53125l-0.5625 1.515625q-0.609375 -0.359375 -1.203125 -0.359375q-0.546875 0 -0.96875 0.328125q-0.421875 0.328125 -0.609375 0.890625q-0.28125 0.875 -0.28125 1.921875l0 5.0625l-1.625 0zm12.8533325 -3.109375l1.6875 0.203125q-0.40625 1.484375 -1.484375 2.3125q-1.078125 0.8125 -2.765625 0.8125q-2.125 0 -3.375 -1.296875q-1.234375 -1.3125 -1.234375 -3.671875q0 -2.453125 1.25 -3.796875q1.265625 -1.34375 3.265625 -1.34375q1.9375 0 3.15625 1.328125q1.234375 1.3125 1.234375 3.703125q0 0.15625 0 0.4375l-7.21875 0q0.09375 1.59375 0.90625 2.453125q0.8125 0.84375 2.015625 0.84375q0.90625 0 1.546875 -0.46875q0.640625 -0.484375 1.015625 -1.515625zm-5.390625 -2.65625l5.40625 0q-0.109375 -1.21875 -0.625 -1.828125q-0.78125 -0.953125 -2.03125 -0.953125q-1.125 0 -1.90625 0.765625q-0.765625 0.75 -0.84375 2.015625zm9.141357 9.46875l0 -13.375l1.484375 0l0 1.25q0.53125 -0.734375 1.1875 -1.09375q0.671875 -0.375 1.625 -0.375q1.234375 0 2.171875 0.640625q0.953125 0.625 1.4375 1.796875q0.484375 1.15625 0.484375 2.546875q0 1.484375 -0.53125 2.671875q-0.53125 1.1875 -1.546875 1.828125q-1.015625 0.625 -2.140625 0.625q-0.8125 0 -1.46875 -0.34375q-0.65625 -0.34375 -1.0625 -0.875l0 4.703125l-1.640625 0zm1.484375 -8.484375q0 1.859375 0.75 2.765625q0.765625 0.890625 1.828125 0.890625q1.09375 0 1.875 -0.921875q0.78125 -0.9375 0.78125 -2.875q0 -1.84375 -0.765625 -2.765625q-0.75 -0.921875 -1.8125 -0.921875q-1.046875 0 -1.859375 0.984375q-0.796875 0.96875 -0.796875 2.84375zm8.281921 -0.0625q0 -2.6875 1.484375 -3.96875q1.25 -1.078125 3.046875 -1.078125q2.0 0 3.265625 1.3125q1.265625 1.296875 1.265625 3.609375q0 1.859375 -0.5625 2.9375q-0.5625 1.0625 -1.640625 1.65625q-1.0625 0.59375 -2.328125 0.59375q-2.03125 0 -3.28125 -1.296875q-1.25 -1.3125 -1.25 -3.765625zm1.6875 0q0 1.859375 0.796875 2.796875q0.8125 0.921875 2.046875 0.921875q1.21875 0 2.03125 -0.921875q0.8125 -0.9375 0.8125 -2.84375q0 -1.796875 -0.8125 -2.71875q-0.8125 -0.921875 -2.03125 -0.921875q-1.234375 0 -2.046875 0.921875q-0.796875 0.90625 -0.796875 2.765625zm9.281982 4.84375l0 -9.671875l1.46875 0l0 1.46875q0.5625 -1.03125 1.03125 -1.359375q0.484375 -0.328125 1.0625 -0.328125q0.828125 0 1.6875 0.53125l-0.5625 1.515625q-0.609375 -0.359375 -1.203125 -0.359375q-0.546875 0 -0.96875 0.328125q-0.421875 0.328125 -0.609375 0.890625q-0.28125 0.875 -0.28125 1.921875l0 5.0625l-1.625 0zm9.8064575 -1.46875l0.234375 1.453125q-0.6875 0.140625 -1.234375 0.140625q-0.890625 0 -1.390625 -0.28125q-0.484375 -0.28125 -0.6875 -0.734375q-0.203125 -0.46875 -0.203125 -1.9375l0 -5.578125l-1.203125 0l0 -1.265625l1.203125 0l0 -2.390625l1.625 -0.984375l0 3.375l1.65625 0l0 1.265625l-1.65625 0l0 5.671875q0 0.6875 0.078125 0.890625q0.09375 0.203125 0.28125 0.328125q0.203125 0.109375 0.578125 0.109375q0.265625 0 0.71875 -0.0625z" fill-rule="nonzero"/><path fill="#000000" fill-opacity="0.0" d="m435.55905 28.238846l125.98428 0l0 27.527557l-125.98428 0z" fill-rule="evenodd"/><path fill="#000000" d="m458.05255 42.110123l-2.53125 0.453125q-0.125 -0.75 -0.578125 -1.125q-0.453125 -0.390625 -1.171875 -0.390625q-0.953125 0 -1.53125 0.65625q-0.5625 0.65625 -0.5625 2.203125q0 1.734375 0.578125 2.4375q0.578125 0.703125 1.546875 0.703125q0.734375 0 1.203125 -0.40625q0.46875 -0.421875 0.65625 -1.421875l2.515625 0.421875q-0.390625 1.734375 -1.515625 2.625q-1.109375 0.875 -2.96875 0.875q-2.125 0 -3.390625 -1.328125q-1.25 -1.34375 -1.25 -3.71875q0 -2.390625 1.265625 -3.71875q1.265625 -1.34375 3.421875 -1.34375q1.765625 0 2.796875 0.765625q1.046875 0.75 1.515625 2.3125zm6.3757324 -2.859375l0 2.03125l-1.75 0l0 3.90625q0 1.1875 0.046875 1.390625q0.046875 0.1875 0.21875 0.3125q0.1875 0.125 0.4375 0.125q0.359375 0 1.03125 -0.25l0.21875 2.0q-0.890625 0.375 -2.015625 0.375q-0.703125 0 -1.265625 -0.234375q-0.546875 -0.234375 -0.8125 -0.59375q-0.25 -0.375 -0.34375 -1.0q-0.09375 -0.453125 -0.09375 -1.8125l0 -4.21875l-1.171875 0l0 -2.03125l1.171875 0l0 -1.921875l2.578125 -1.5l0 3.421875l1.75 0zm1.181427 4.703125q0 -1.28125 0.625 -2.46875q0.625 -1.203125 1.78125 -1.828125q1.15625 -0.625 2.578125 -0.625q2.1875 0 3.59375 1.421875q1.40625 1.421875 1.40625 3.609375q0 2.1875 -1.421875 3.640625q-1.421875 1.4375 -3.5625 1.4375q-1.328125 0 -2.546875 -0.59375q-1.203125 -0.609375 -1.828125 -1.765625q-0.625 -1.171875 -0.625 -2.828125zm2.625 0.125q0 1.453125 0.671875 2.21875q0.6875 0.75 1.6875 0.75q1.0 0 1.671875 -0.75q0.6875 -0.765625 0.6875 -2.234375q0 -1.421875 -0.6875 -2.1875q-0.671875 -0.765625 -1.671875 -0.765625q-1.0 0 -1.6875 0.765625q-0.671875 0.765625 -0.671875 2.203125zm18.78241 8.765625l-1.75 0q-1.390625 -2.09375 -2.125 -4.359375q-0.734375 -2.28125 -0.734375 -4.40625q0 -2.625 0.90625 -4.96875q0.78125 -2.046875 1.984375 -3.765625l1.75 0q-1.25 2.75 -1.71875 4.6875q-0.46875 1.9375 -0.46875 4.109375q0 1.5 0.28125 3.0625q0.28125 1.5625 0.765625 2.96875q0.3125 0.9375 1.109375 2.671875zm8.337677 -3.921875l0 -1.453125q-0.53125 0.78125 -1.390625 1.234375q-0.859375 0.4375 -1.8125 0.4375q-0.96875 0 -1.75 -0.421875q-0.765625 -0.4375 -1.125 -1.203125q-0.34375 -0.78125 -0.34375 -2.140625l0 -6.125l2.5625 0l0 4.4375q0 2.046875 0.140625 2.515625q0.140625 0.453125 0.515625 0.71875q0.375 0.265625 0.953125 0.265625q0.65625 0 1.171875 -0.359375q0.515625 -0.359375 0.703125 -0.890625q0.203125 -0.53125 0.203125 -2.609375l0 -4.078125l2.546875 0l0 9.671875l-2.375 0zm4.1303406 -2.765625l2.5625 -0.390625q0.171875 0.75 0.671875 1.140625q0.5 0.390625 1.40625 0.390625q0.984375 0 1.484375 -0.375q0.34375 -0.25 0.34375 -0.671875q0 -0.296875 -0.1875 -0.484375q-0.1875 -0.1875 -0.859375 -0.34375q-3.09375 -0.6875 -3.921875 -1.25q-1.140625 -0.78125 -1.140625 -2.171875q0 -1.265625 0.984375 -2.109375q1.0 -0.859375 3.078125 -0.859375q1.984375 0 2.953125 0.65625q0.96875 0.640625 1.328125 1.90625l-2.40625 0.4375q-0.15625 -0.5625 -0.59375 -0.859375q-0.421875 -0.296875 -1.234375 -0.296875q-1.0 0 -1.4375 0.28125q-0.296875 0.203125 -0.296875 0.515625q0 0.265625 0.25 0.46875q0.34375 0.25 2.390625 0.71875q2.046875 0.453125 2.859375 1.140625q0.796875 0.671875 0.796875 1.890625q0 1.34375 -1.109375 2.296875q-1.109375 0.953125 -3.28125 0.953125q-1.984375 0 -3.140625 -0.796875q-1.140625 -0.8125 -1.5 -2.1875zm16.875702 -0.3125l2.546875 0.421875q-0.484375 1.40625 -1.546875 2.140625q-1.0625 0.734375 -2.65625 0.734375q-2.515625 0 -3.7343445 -1.65625q-0.953125 -1.3125 -0.953125 -3.328125q0 -2.40625 1.25 -3.765625q1.2655945 -1.359375 3.1874695 -1.359375q2.15625 0 3.40625 1.421875q1.25 1.421875 1.1875 4.375l-6.40625 0q0.03125 1.140625 0.609375 1.78125q0.59375 0.625 1.484375 0.625q0.59375 0 1.0 -0.328125q0.421875 -0.328125 0.625 -1.0625zm0.15625 -2.59375q-0.03125 -1.109375 -0.578125 -1.6875q-0.546875 -0.578125 -1.328125 -0.578125q-0.84375 0 -1.390625 0.609375q-0.546875 0.609375 -0.53125 1.65625l3.828125 0zm7.0788574 5.671875l-2.5625 0l0 -9.671875l2.375 0l0 1.375q0.609375 -0.984375 1.09375 -1.28125q0.484375 -0.3125 1.109375 -0.3125q0.875 0 1.6875 0.484375l-0.796875 2.234375q-0.640625 -0.421875 -1.203125 -0.421875q-0.53125 0 -0.90625 0.296875q-0.375 0.296875 -0.59375 1.078125q-0.203125 0.765625 -0.203125 3.234375l0 2.984375zm18.084229 -2.375l0 2.375l-8.96875 0q0.140625 -1.34375 0.859375 -2.546875q0.734375 -1.21875 2.890625 -3.203125q1.734375 -1.625 2.125 -2.1875q0.53125 -0.796875 0.53125 -1.578125q0 -0.84375 -0.46875 -1.296875q-0.453125 -0.46875 -1.265625 -0.46875q-0.796875 0 -1.28125 0.484375q-0.46875 0.46875 -0.546875 1.59375l-2.546875 -0.25q0.234375 -2.109375 1.421875 -3.03125q1.203125 -0.921875 3.015625 -0.921875q1.96875 0 3.09375 1.0625q1.140625 1.0625 1.140625 2.65625q0 0.890625 -0.328125 1.71875q-0.3125 0.8125 -1.015625 1.703125q-0.46875 0.59375 -1.6875 1.703125q-1.203125 1.109375 -1.53125 1.484375q-0.3125 0.359375 -0.515625 0.703125l5.078125 0zm1.5631714 6.296875q0.765625 -1.609375 1.0625 -2.484375q0.3125 -0.859375 0.578125 -1.984375q0.265625 -1.140625 0.390625 -2.15625q0.125 -1.015625 0.125 -2.078125q0 -2.171875 -0.46875 -4.109375q-0.453125 -1.9375 -1.703125 -4.6875l1.734375 0q1.375 1.953125 2.140625 4.15625q0.765625 2.1875 0.765625 4.453125q0 1.90625 -0.609375 4.078125q-0.671875 2.4375 -2.25 4.8125l-1.765625 0z" fill-rule="nonzero"/><path fill="#000000" fill-opacity="0.0" d="m178.90552 28.238846l196.18896 0l0 27.527557l-196.18896 0z" fill-rule="evenodd"/><path fill="#000000" d="m221.8421 37.938248l0 -2.375l2.5625 0l0 2.375l-2.5625 0zm0 10.984375l0 -9.671875l2.5625 0l0 9.671875l-2.5625 0zm13.980179 0l-2.5625 0l0 -4.9375q0 -1.5625 -0.171875 -2.015625q-0.15625 -0.46875 -0.53125 -0.71875q-0.359375 -0.265625 -0.875 -0.265625q-0.671875 0 -1.203125 0.375q-0.53125 0.359375 -0.734375 0.96875q-0.1875 0.59375 -0.1875 2.21875l0 4.375l-2.546875 0l0 -9.671875l2.375 0l0 1.421875q1.265625 -1.640625 3.1875 -1.640625q0.84375 0 1.546875 0.3125q0.703125 0.296875 1.0625 0.78125q0.359375 0.46875 0.5 1.078125q0.140625 0.59375 0.140625 1.703125l0 6.015625zm1.4741058 -9.671875l1.421875 0l0 -0.734375q0 -1.21875 0.25 -1.8125q0.265625 -0.609375 0.953125 -0.984375q0.703125 -0.375 1.78125 -0.375q1.09375 0 2.140625 0.328125l-0.359375 1.78125q-0.609375 -0.140625 -1.171875 -0.140625q-0.546875 0 -0.796875 0.265625q-0.234375 0.25 -0.234375 0.984375l0 0.6875l1.90625 0l0 2.015625l-1.90625 0l0 7.65625l-2.5625 0l0 -7.65625l-1.421875 0l0 -2.015625zm9.790802 9.671875l-2.5625 0l0 -9.671875l2.375 0l0 1.375q0.609375 -0.984375 1.09375 -1.28125q0.484375 -0.3125 1.109375 -0.3125q0.875 0 1.6875 0.484375l-0.796875 2.234375q-0.640625 -0.421875 -1.203125 -0.421875q-0.53125 0 -0.90625 0.296875q-0.375 0.296875 -0.59375 1.078125q-0.203125 0.765625 -0.203125 3.234375l0 2.984375zm6.713394 -6.71875l-2.328125 -0.421875q0.40625 -1.40625 1.359375 -2.078125q0.953125 -0.671875 2.84375 -0.671875q1.7031097 0 2.5468597 0.40625q0.84375 0.40625 1.171875 1.03125q0.34375 0.625 0.34375 2.28125l-0.015625 3.0q0 1.265625 0.109375 1.875q0.125 0.609375 0.46875 1.296875l-2.53125 0q-0.109375 -0.25 -0.25 -0.75q-0.0625 -0.234375 -0.09375 -0.3125q-0.65625 0.640625 -1.40625 0.96875q-0.73435974 0.3125 -1.5937347 0.3125q-1.484375 0 -2.34375 -0.8125q-0.859375 -0.8125 -0.859375 -2.046875q0 -0.828125 0.390625 -1.46875q0.390625 -0.640625 1.09375 -0.96875q0.703125 -0.34375 2.03125 -0.609375q1.7968597 -0.328125 2.4843597 -0.625l0 -0.25q0 -0.75 -0.359375 -1.0625q-0.359375 -0.3125 -1.3749847 -0.3125q-0.6875 0 -1.078125 0.28125q-0.375 0.265625 -0.609375 0.9375zm3.4218597 2.078125q-0.484375 0.15625 -1.5624847 0.390625q-1.0625 0.21875 -1.390625 0.4375q-0.5 0.359375 -0.5 0.90625q0 0.53125 0.40625 0.9375q0.40625 0.390625 1.015625 0.390625q0.703125 0 1.3281097 -0.46875q0.46875 -0.34375 0.609375 -0.84375q0.09375 -0.328125 0.09375 -1.25l0 -0.5zm14.465271 8.5625l-1.75 0q-1.390625 -2.09375 -2.125 -4.359375q-0.734375 -2.28125 -0.734375 -4.40625q0 -2.625 0.90625 -4.96875q0.78125 -2.046875 1.984375 -3.765625l1.75 0q-1.25 2.75 -1.71875 4.6875q-0.46875 1.9375 -0.46875 4.109375q0 1.5 0.28125 3.0625q0.28125 1.5625 0.765625 2.96875q0.3125 0.9375 1.109375 2.671875zm8.337677 -3.921875l0 -1.453125q-0.53125 0.78125 -1.390625 1.234375q-0.859375 0.4375 -1.8125 0.4375q-0.96875 0 -1.75 -0.421875q-0.765625 -0.4375 -1.125 -1.203125q-0.34375 -0.78125 -0.34375 -2.140625l0 -6.125l2.5625 0l0 4.4375q0 2.046875 0.140625 2.515625q0.140625 0.453125 0.515625 0.71875q0.375 0.265625 0.953125 0.265625q0.65625 0 1.171875 -0.359375q0.515625 -0.359375 0.703125 -0.890625q0.203125 -0.53125 0.203125 -2.609375l0 -4.078125l2.546875 0l0 9.671875l-2.375 0zm4.130371 -2.765625l2.5625 -0.390625q0.171875 0.75 0.671875 1.140625q0.5 0.390625 1.40625 0.390625q0.984375 0 1.484375 -0.375q0.34375 -0.25 0.34375 -0.671875q0 -0.296875 -0.1875 -0.484375q-0.1875 -0.1875 -0.859375 -0.34375q-3.09375 -0.6875 -3.921875 -1.25q-1.140625 -0.78125 -1.140625 -2.171875q0 -1.265625 0.984375 -2.109375q1.0 -0.859375 3.078125 -0.859375q1.984375 0 2.953125 0.65625q0.96875 0.640625 1.328125 1.90625l-2.40625 0.4375q-0.15625 -0.5625 -0.59375 -0.859375q-0.421875 -0.296875 -1.234375 -0.296875q-1.0 0 -1.4375 0.28125q-0.296875 0.203125 -0.296875 0.515625q0 0.265625 0.25 0.46875q0.34375 0.25 2.390625 0.71875q2.046875 0.453125 2.859375 1.140625q0.796875 0.671875 0.796875 1.890625q0 1.34375 -1.109375 2.296875q-1.109375 0.953125 -3.28125 0.953125q-1.984375 0 -3.140625 -0.796875q-1.140625 -0.8125 -1.5 -2.1875zm16.875702 -0.3125l2.546875 0.421875q-0.484375 1.40625 -1.546875 2.140625q-1.0625 0.734375 -2.65625 0.734375q-2.515625 0 -3.734375 -1.65625q-0.953125 -1.3125 -0.953125 -3.328125q0 -2.40625 1.25 -3.765625q1.265625 -1.359375 3.1875 -1.359375q2.15625 0 3.40625 1.421875q1.25 1.421875 1.1875 4.375l-6.40625 0q0.03125 1.140625 0.609375 1.78125q0.59375 0.625 1.484375 0.625q0.59375 0 1.0 -0.328125q0.421875 -0.328125 0.625 -1.0625zm0.15625 -2.59375q-0.03125 -1.109375 -0.578125 -1.6875q-0.546875 -0.578125 -1.328125 -0.578125q-0.84375 0 -1.390625 0.609375q-0.546875 0.609375 -0.53125 1.65625l3.828125 0zm7.0788574 5.671875l-2.5625 0l0 -9.671875l2.375 0l0 1.375q0.609375 -0.984375 1.09375 -1.28125q0.484375 -0.3125 1.109375 -0.3125q0.875 0 1.6875 0.484375l-0.796875 2.234375q-0.640625 -0.421875 -1.203125 -0.421875q-0.53125 0 -0.90625 0.296875q-0.375 0.296875 -0.59375 1.078125q-0.203125 0.765625 -0.203125 3.234375l0 2.984375zm9.349823 -3.546875l2.46875 -0.296875q0.125 0.953125 0.640625 1.453125q0.53125 0.5 1.265625 0.5q0.78125 0 1.328125 -0.59375q0.546875 -0.609375 0.546875 -1.640625q0 -0.953125 -0.53125 -1.515625q-0.515625 -0.578125 -1.25 -0.578125q-0.5 0 -1.1875 0.203125l0.28125 -2.09375q1.046875 0.03125 1.59375 -0.4375q0.546875 -0.484375 0.546875 -1.28125q0 -0.671875 -0.40625 -1.078125q-0.390625 -0.40625 -1.0625 -0.40625q-0.65625 0 -1.125 0.46875q-0.453125 0.453125 -0.5625 1.328125l-2.359375 -0.40625q0.25 -1.203125 0.734375 -1.921875q0.5 -0.734375 1.390625 -1.140625q0.890625 -0.421875 2.0 -0.421875q1.875 0 3.015625 1.203125q0.9375 0.984375 0.9375 2.21875q0 1.765625 -1.921875 2.8125q1.15625 0.234375 1.84375 1.09375q0.6875 0.859375 0.6875 2.0625q0 1.765625 -1.296875 3.015625q-1.28125 1.234375 -3.1875 1.234375q-1.8125 0 -3.015625 -1.046875q-1.1875 -1.046875 -1.375 -2.734375zm10.297577 7.46875q0.765625 -1.609375 1.0625 -2.484375q0.3125 -0.859375 0.578125 -1.984375q0.265625 -1.140625 0.390625 -2.15625q0.125 -1.015625 0.125 -2.078125q0 -2.171875 -0.46875 -4.109375q-0.453125 -1.9375 -1.703125 -4.6875l1.734375 0q1.375 1.953125 2.140625 4.15625q0.765625 2.1875 0.765625 4.453125q0 1.90625 -0.609375 4.078125q-0.671875 2.4375 -2.25 4.8125l-1.765625 0z" fill-rule="nonzero"/><path fill="#000000" fill-opacity="0.0" d="m622.0079 28.238846l222.51971 0l0 27.527557l-222.51971 0z" fill-rule="evenodd"/><path fill="#000000" d="m666.62274 39.250748l1.421875 0l0 -0.734375q0 -1.21875 0.25 -1.8125q0.265625 -0.609375 0.953125 -0.984375q0.703125 -0.375 1.78125 -0.375q1.09375 0 2.140625 0.328125l-0.359375 1.78125q-0.609375 -0.140625 -1.171875 -0.140625q-0.546875 0 -0.796875 0.265625q-0.234375 0.25 -0.234375 0.984375l0 0.6875l1.90625 0l0 2.015625l-1.90625 0l0 7.65625l-2.5625 0l0 -7.65625l-1.421875 0l0 -2.015625zm7.3377075 -1.3125l0 -2.375l2.5625 0l0 2.375l-2.5625 0zm0 10.984375l0 -9.671875l2.5625 0l0 9.671875l-2.5625 0zm13.980164 0l-2.5625 0l0 -4.9375q0 -1.5625 -0.171875 -2.015625q-0.15625 -0.46875 -0.53125 -0.71875q-0.359375 -0.265625 -0.875 -0.265625q-0.671875 0 -1.203125 0.375q-0.53125 0.359375 -0.734375 0.96875q-0.1875 0.59375 -0.1875 2.21875l0 4.375l-2.546875 0l0 -9.671875l2.375 0l0 1.421875q1.265625 -1.640625 3.1875 -1.640625q0.84375 0 1.546875 0.3125q0.703125 0.296875 1.0625 0.78125q0.359375 0.46875 0.5 1.078125q0.140625 0.59375 0.140625 1.703125l0 6.015625zm7.036621 -9.671875l0 2.03125l-1.75 0l0 3.90625q0 1.1875 0.046875 1.390625q0.046875 0.1875 0.21875 0.3125q0.1875 0.125 0.4375 0.125q0.359375 0 1.03125 -0.25l0.21875 2.0q-0.890625 0.375 -2.015625 0.375q-0.703125 0 -1.265625 -0.234375q-0.546875 -0.234375 -0.8125 -0.59375q-0.25 -0.375 -0.34375 -1.0q-0.09375 -0.453125 -0.09375 -1.8125l0 -4.21875l-1.171875 0l0 -2.03125l1.171875 0l0 -1.921875l2.578125 -1.5l0 3.421875l1.75 0zm7.3688965 6.59375l2.546875 0.421875q-0.484375 1.40625 -1.546875 2.140625q-1.0625 0.734375 -2.65625 0.734375q-2.515625 0 -3.734375 -1.65625q-0.953125 -1.3125 -0.953125 -3.328125q0 -2.40625 1.25 -3.765625q1.265625 -1.359375 3.1875 -1.359375q2.15625 0 3.40625 1.421875q1.25 1.421875 1.1875 4.375l-6.40625 0q0.03125 1.140625 0.609375 1.78125q0.59375 0.625 1.484375 0.625q0.59375 0 1.0 -0.328125q0.421875 -0.328125 0.625 -1.0625zm0.15625 -2.59375q-0.03125 -1.109375 -0.578125 -1.6875q-0.546875 -0.578125 -1.328125 -0.578125q-0.84375 0 -1.390625 0.609375q-0.546875 0.609375 -0.53125 1.65625l3.828125 0zm13.063232 -1.140625l-2.53125 0.453125q-0.125 -0.75 -0.578125 -1.125q-0.453125 -0.390625 -1.171875 -0.390625q-0.953125 0 -1.53125 0.65625q-0.5625 0.65625 -0.5625 2.203125q0 1.734375 0.578125 2.4375q0.578125 0.703125 1.546875 0.703125q0.734375 0 1.203125 -0.40625q0.46875 -0.421875 0.65625 -1.421875l2.515625 0.421875q-0.390625 1.734375 -1.515625 2.625q-1.109375 0.875 -2.96875 0.875q-2.125 0 -3.390625 -1.328125q-1.25 -1.34375 -1.25 -3.71875q0 -2.390625 1.265625 -3.71875q1.265625 -1.34375 3.421875 -1.34375q1.765625 0 2.796875 0.765625q1.046875 0.75 1.515625 2.3125zm4.4851074 -6.546875l0 4.921875q1.234375 -1.453125 2.953125 -1.453125q0.890625 0 1.59375 0.328125q0.71875 0.328125 1.078125 0.84375q0.359375 0.5 0.484375 1.125q0.140625 0.609375 0.140625 1.921875l0 5.671875l-2.5625 0l0 -5.109375q0 -1.515625 -0.15625 -1.921875q-0.140625 -0.421875 -0.515625 -0.65625q-0.359375 -0.25 -0.90625 -0.25q-0.640625 0 -1.140625 0.3125q-0.5 0.3125 -0.734375 0.9375q-0.234375 0.625 -0.234375 1.84375l0 4.84375l-2.5625 0l0 -13.359375l2.5625 0zm18.266785 17.28125l-1.75 0q-1.390625 -2.09375 -2.125 -4.359375q-0.734375 -2.28125 -0.734375 -4.40625q0 -2.625 0.90625 -4.96875q0.78125 -2.046875 1.984375 -3.765625l1.75 0q-1.25 2.75 -1.71875 4.6875q-0.46875 1.9375 -0.46875 4.109375q0 1.5 0.28125 3.0625q0.28125 1.5625 0.765625 2.96875q0.3125 0.9375 1.109375 2.671875zm8.3376465 -3.921875l0 -1.453125q-0.53125 0.78125 -1.390625 1.234375q-0.859375 0.4375 -1.8125 0.4375q-0.96875 0 -1.75 -0.421875q-0.765625 -0.4375 -1.125 -1.203125q-0.34375 -0.78125 -0.34375 -2.140625l0 -6.125l2.5625 0l0 4.4375q0 2.046875 0.140625 2.515625q0.140625 0.453125 0.515625 0.71875q0.375 0.265625 0.953125 0.265625q0.65625 0 1.171875 -0.359375q0.515625 -0.359375 0.703125 -0.890625q0.203125 -0.53125 0.203125 -2.609375l0 -4.078125l2.546875 0l0 9.671875l-2.375 0zm4.130371 -2.765625l2.5625 -0.390625q0.171875 0.75 0.671875 1.140625q0.5 0.390625 1.40625 0.390625q0.984375 0 1.484375 -0.375q0.34375 -0.25 0.34375 -0.671875q0 -0.296875 -0.1875 -0.484375q-0.1875 -0.1875 -0.859375 -0.34375q-3.09375 -0.6875 -3.921875 -1.25q-1.140625 -0.78125 -1.140625 -2.171875q0 -1.265625 0.984375 -2.109375q1.0 -0.859375 3.078125 -0.859375q1.984375 0 2.953125 0.65625q0.96875 0.640625 1.328125 1.90625l-2.40625 0.4375q-0.15625 -0.5625 -0.59375 -0.859375q-0.421875 -0.296875 -1.234375 -0.296875q-1.0 0 -1.4375 0.28125q-0.296875 0.203125 -0.296875 0.515625q0 0.265625 0.25 0.46875q0.34375 0.25 2.390625 0.71875q2.046875 0.453125 2.859375 1.140625q0.796875 0.671875 0.796875 1.890625q0 1.34375 -1.109375 2.296875q-1.109375 0.953125 -3.28125 0.953125q-1.984375 0 -3.140625 -0.796875q-1.140625 -0.8125 -1.5 -2.1875zm16.875732 -0.3125l2.546875 0.421875q-0.484375 1.40625 -1.546875 2.140625q-1.0625 0.734375 -2.65625 0.734375q-2.515625 0 -3.734375 -1.65625q-0.953125 -1.3125 -0.953125 -3.328125q0 -2.40625 1.25 -3.765625q1.265625 -1.359375 3.1875 -1.359375q2.15625 0 3.40625 1.421875q1.25 1.421875 1.1875 4.375l-6.40625 0q0.03125 1.140625 0.609375 1.78125q0.59375 0.625 1.484375 0.625q0.59375 0 1.0 -0.328125q0.421875 -0.328125 0.625 -1.0625zm0.15625 -2.59375q-0.03125 -1.109375 -0.578125 -1.6875q-0.546875 -0.578125 -1.328125 -0.578125q-0.84375 0 -1.390625 0.609375q-0.546875 0.609375 -0.53125 1.65625l3.828125 0zm7.0788574 5.671875l-2.5625 0l0 -9.671875l2.375 0l0 1.375q0.609375 -0.984375 1.09375 -1.28125q0.484375 -0.3125 1.109375 -0.3125q0.875 0 1.6875 0.484375l-0.796875 2.234375q-0.640625 -0.421875 -1.203125 -0.421875q-0.53125 0 -0.90625 0.296875q-0.375 0.296875 -0.59375 1.078125q-0.203125 0.765625 -0.203125 3.234375l0 2.984375zm14.4591675 0l0 -2.6875l-5.46875 0l0 -2.234375l5.796875 -8.484375l2.15625 0l0 8.46875l1.65625 0l0 2.25l-1.65625 0l0 2.6875l-2.484375 0zm0 -4.9375l0 -4.5625l-3.078125 4.5625l3.078125 0zm5.1882324 8.859375q0.765625 -1.609375 1.0625 -2.484375q0.3125 -0.859375 0.578125 -1.984375q0.265625 -1.140625 0.390625 -2.15625q0.125 -1.015625 0.125 -2.078125q0 -2.171875 -0.46875 -4.109375q-0.453125 -1.9375 -1.703125 -4.6875l1.734375 0q1.375 1.953125 2.140625 4.15625q0.765625 2.1875 0.765625 4.453125q0 1.90625 -0.609375 4.078125q-0.671875 2.4375 -2.25 4.8125l-1.765625 0z" fill-rule="nonzero"/><path fill="#fff2cc" d="m268.32285 284.71127l97.921234 0l0 38.771667l-97.921234 0z" fill-rule="evenodd"/><path stroke="#000000" stroke-width="1.0" stroke-linejoin="round" stroke-linecap="butt" d="m268.32285 284.71127l97.921234 0l0 38.771667l-97.921234 0z" fill-rule="evenodd"/><path fill="#000000" d="m287.29303 311.65775l2.921875 0.359375q0.0625 0.5 0.328125 0.6875q0.375 0.28125 1.15625 0.28125q1.0 0 1.5 -0.296875q0.328125 -0.203125 0.515625 -0.65625q0.109375 -0.3125 0.109375 -1.171875l0 -1.40625q-1.140625 1.5625 -2.890625 1.5625q-1.953125 0 -3.09375 -1.65625q-0.890625 -1.296875 -0.890625 -3.234375q0 -2.4375 1.171875 -3.71875q1.171875 -1.28125 2.90625 -1.28125q1.796875 0 2.96875 1.578125l0 -1.359375l2.390625 0l0 8.671875q0 1.71875 -0.28125 2.5625q-0.28125 0.84375 -0.796875 1.328125q-0.5 0.484375 -1.359375 0.75q-0.84375 0.28125 -2.15625 0.28125q-2.453125 0 -3.484375 -0.84375q-1.03125 -0.84375 -1.03125 -2.125q0 -0.140625 0.015625 -0.3125zm2.28125 -5.671875q0 1.53125 0.59375 2.25q0.59375 0.71875 1.46875 0.71875q0.9375 0 1.578125 -0.734375q0.65625 -0.734375 0.65625 -2.171875q0 -1.515625 -0.625 -2.234375q-0.609375 -0.734375 -1.5625 -0.734375q-0.921875 0 -1.515625 0.71875q-0.59375 0.71875 -0.59375 2.1875zm7.8334656 8.71875l0 -1.65625l10.640625 0l0 1.65625l-10.640625 0zm11.891357 -14.671875l0 -2.375l2.5625 0l0 2.375l-2.5625 0zm0 10.984375l0 -9.671875l2.5625 0l0 9.671875l-2.5625 0zm13.980164 0l-2.5625 0l0 -4.9375q0 -1.5625 -0.171875 -2.015625q-0.15625 -0.46875 -0.53125 -0.71875q-0.359375 -0.265625 -0.875 -0.265625q-0.671875 0 -1.203125 0.375q-0.53125 0.359375 -0.734375 0.96875q-0.1875 0.59375 -0.1875 2.21875l0 4.375l-2.546875 0l0 -9.671875l2.375 0l0 1.421875q1.265625 -1.640625 3.1875 -1.640625q0.84375 0 1.546875 0.3125q0.703125 0.296875 1.0625 0.78125q0.359375 0.46875 0.5 1.078125q0.140625 0.59375 0.140625 1.703125l0 6.015625zm1.4741211 -9.671875l1.421875 0l0 -0.734375q0 -1.21875 0.25 -1.8125q0.265625 -0.609375 0.953125 -0.984375q0.703125 -0.375 1.78125 -0.375q1.09375 0 2.140625 0.328125l-0.359375 1.78125q-0.609375 -0.140625 -1.171875 -0.140625q-0.546875 0 -0.796875 0.265625q-0.234375 0.25 -0.234375 0.984375l0 0.6875l1.90625 0l0 2.015625l-1.90625 0l0 7.65625l-2.5625 0l0 -7.65625l-1.421875 0l0 -2.015625zm9.790802 9.671875l-2.5625 0l0 -9.671875l2.375 0l0 1.375q0.609375 -0.984375 1.09375 -1.28125q0.484375 -0.3125 1.109375 -0.3125q0.875 0 1.6875 0.484375l-0.796875 2.234375q-0.640625 -0.421875 -1.203125 -0.421875q-0.53125 0 -0.90625 0.296875q-0.375 0.296875 -0.59375 1.078125q-0.203125 0.765625 -0.203125 3.234375l0 2.984375zm6.713379 -6.71875l-2.328125 -0.421875q0.40625 -1.40625 1.359375 -2.078125q0.953125 -0.671875 2.84375 -0.671875q1.703125 0 2.546875 0.40625q0.84375 0.40625 1.171875 1.03125q0.34375 0.625 0.34375 2.28125l-0.015625 3.0q0 1.265625 0.109375 1.875q0.125 0.609375 0.46875 1.296875l-2.53125 0q-0.109375 -0.25 -0.25 -0.75q-0.0625 -0.234375 -0.09375 -0.3125q-0.65625 0.640625 -1.40625 0.96875q-0.734375 0.3125 -1.59375 0.3125q-1.484375 0 -2.34375 -0.8125q-0.859375 -0.8125 -0.859375 -2.046875q0 -0.828125 0.390625 -1.46875q0.390625 -0.640625 1.09375 -0.96875q0.703125 -0.34375 2.03125 -0.609375q1.796875 -0.328125 2.484375 -0.625l0 -0.25q0 -0.75 -0.359375 -1.0625q-0.359375 -0.3125 -1.375 -0.3125q-0.6875 0 -1.078125 0.28125q-0.375 0.265625 -0.609375 0.9375zm3.421875 2.078125q-0.484375 0.15625 -1.5625 0.390625q-1.0625 0.21875 -1.390625 0.4375q-0.5 0.359375 -0.5 0.90625q0 0.53125 0.40625 0.9375q0.40625 0.390625 1.015625 0.390625q0.703125 0 1.328125 -0.46875q0.46875 -0.34375 0.609375 -0.84375q0.09375 -0.328125 0.09375 -1.25l0 -0.5z" fill-rule="nonzero"/><path fill="#fff2cc" d="m704.5276 284.70996l138.04724 0l0 38.771667l-138.04724 0z" fill-rule="evenodd"/><path stroke="#000000" stroke-width="1.0" stroke-linejoin="round" stroke-linecap="butt" d="m704.5276 284.70996l138.04724 0l0 38.771667l-138.04724 0z" fill-rule="evenodd"/><path fill="#000000" d="m733.19867 311.65643l2.921875 0.359375q0.0625 0.5 0.328125 0.6875q0.375 0.28125 1.15625 0.28125q1.0 0 1.5 -0.296875q0.328125 -0.203125 0.515625 -0.65625q0.109375 -0.3125 0.109375 -1.171875l0 -1.40625q-1.140625 1.5625 -2.890625 1.5625q-1.953125 0 -3.09375 -1.65625q-0.890625 -1.296875 -0.890625 -3.234375q0 -2.4375 1.171875 -3.71875q1.171875 -1.28125 2.90625 -1.28125q1.796875 0 2.96875 1.578125l0 -1.359375l2.390625 0l0 8.671875q0 1.71875 -0.28125 2.5625q-0.28125 0.84375 -0.796875 1.328125q-0.5 0.484375 -1.359375 0.75q-0.84375 0.28125 -2.15625 0.28125q-2.453125 0 -3.484375 -0.84375q-1.03125 -0.84375 -1.03125 -2.125q0 -0.140625 0.015625 -0.3125zm2.28125 -5.671875q0 1.53125 0.59375 2.25q0.59375 0.71875 1.46875 0.71875q0.9375 0 1.578125 -0.734375q0.65625 -0.734375 0.65625 -2.171875q0 -1.515625 -0.625 -2.234375q-0.609375 -0.734375 -1.5625 -0.734375q-0.921875 0 -1.515625 0.71875q-0.59375 0.71875 -0.59375 2.1875zm7.833496 8.71875l0 -1.65625l10.640625 0l0 1.65625l-10.640625 0zm10.766357 -13.359375l1.421875 0l0 -0.734375q0 -1.21875 0.25 -1.8125q0.265625 -0.609375 0.953125 -0.984375q0.703125 -0.375 1.78125 -0.375q1.09375 0 2.140625 0.328125l-0.359375 1.78125q-0.609375 -0.140625 -1.171875 -0.140625q-0.546875 0 -0.796875 0.265625q-0.234375 0.25 -0.234375 0.984375l0 0.6875l1.90625 0l0 2.015625l-1.90625 0l0 7.65625l-2.5625 0l0 -7.65625l-1.421875 0l0 -2.015625zm7.3376465 -1.3125l0 -2.375l2.5625 0l0 2.375l-2.5625 0zm0 10.984375l0 -9.671875l2.5625 0l0 9.671875l-2.5625 0zm13.980164 0l-2.5625 0l0 -4.9375q0 -1.5625 -0.171875 -2.015625q-0.15625 -0.46875 -0.53125 -0.71875q-0.359375 -0.265625 -0.875 -0.265625q-0.671875 0 -1.203125 0.375q-0.53125 0.359375 -0.734375 0.96875q-0.1875 0.59375 -0.1875 2.21875l0 4.375l-2.546875 0l0 -9.671875l2.375 0l0 1.421875q1.265625 -1.640625 3.1875 -1.640625q0.84375 0 1.546875 0.3125q0.703125 0.296875 1.0625 0.78125q0.359375 0.46875 0.5 1.078125q0.140625 0.59375 0.140625 1.703125l0 6.015625zm7.036621 -9.671875l0 2.03125l-1.75 0l0 3.90625q0 1.1875 0.046875 1.390625q0.046875 0.1875 0.21875 0.3125q0.1875 0.125 0.4375 0.125q0.359375 0 1.03125 -0.25l0.21875 2.0q-0.890625 0.375 -2.015625 0.375q-0.703125 0 -1.265625 -0.234375q-0.546875 -0.234375 -0.8125 -0.59375q-0.25 -0.375 -0.34375 -1.0q-0.09375 -0.453125 -0.09375 -1.8125l0 -4.21875l-1.171875 0l0 -2.03125l1.171875 0l0 -1.921875l2.578125 -1.5l0 3.421875l1.75 0zm7.3689575 6.59375l2.546875 0.421875q-0.484375 1.40625 -1.546875 2.140625q-1.0625 0.734375 -2.65625 0.734375q-2.515625 0 -3.734375 -1.65625q-0.953125 -1.3125 -0.953125 -3.328125q0 -2.40625 1.25 -3.765625q1.265625 -1.359375 3.1875 -1.359375q2.15625 0 3.40625 1.421875q1.25 1.421875 1.1875 4.375l-6.40625 0q0.03125 1.140625 0.609375 1.78125q0.59375 0.625 1.484375 0.625q0.59375 0 1.0 -0.328125q0.421875 -0.328125 0.625 -1.0625zm0.15625 -2.59375q-0.03125 -1.109375 -0.578125 -1.6875q-0.546875 -0.578125 -1.328125 -0.578125q-0.84375 0 -1.390625 0.609375q-0.546875 0.609375 -0.53125 1.65625l3.828125 0zm13.063171 -1.140625l-2.53125 0.453125q-0.125 -0.75 -0.578125 -1.125q-0.453125 -0.390625 -1.171875 -0.390625q-0.953125 0 -1.53125 0.65625q-0.5625 0.65625 -0.5625 2.203125q0 1.734375 0.578125 2.4375q0.578125 0.703125 1.546875 0.703125q0.734375 0 1.203125 -0.40625q0.46875 -0.421875 0.65625 -1.421875l2.515625 0.421875q-0.390625 1.734375 -1.515625 2.625q-1.109375 0.875 -2.96875 0.875q-2.125 0 -3.390625 -1.328125q-1.25 -1.34375 -1.25 -3.71875q0 -2.390625 1.265625 -3.71875q1.265625 -1.34375 3.421875 -1.34375q1.765625 0 2.796875 0.765625q1.046875 0.75 1.515625 2.3125zm4.4851074 -6.546875l0 4.921875q1.234375 -1.453125 2.953125 -1.453125q0.890625 0 1.59375 0.328125q0.71875 0.328125 1.078125 0.84375q0.359375 0.5 0.484375 1.125q0.140625 0.609375 0.140625 1.921875l0 5.671875l-2.5625 0l0 -5.109375q0 -1.515625 -0.15625 -1.921875q-0.140625 -0.421875 -0.515625 -0.65625q-0.359375 -0.25 -0.90625 -0.25q-0.640625 0 -1.140625 0.3125q-0.5 0.3125 -0.734375 0.9375q-0.234375 0.625 -0.234375 1.84375l0 4.84375l-2.5625 0l0 -13.359375l2.5625 0z" fill-rule="nonzero"/><path fill="#000000" fill-opacity="0.0" d="m277.0 55.766403l0 74.17323" fill-rule="evenodd"/><path stroke="#000000" stroke-width="1.0" stroke-linejoin="round" stroke-linecap="butt" d="m277.0 55.766403l0 68.17323" fill-rule="evenodd"/><path fill="#000000" stroke="#000000" stroke-width="1.0" stroke-linecap="butt" d="m275.34827 123.93964l1.6517334 4.538101l1.6517334 -4.538101z" fill-rule="evenodd"/><path fill="#000000" fill-opacity="0.0" d="m733.2677 55.766403l0 66.551186" fill-rule="evenodd"/><path stroke="#000000" stroke-width="1.0" stroke-linejoin="round" stroke-linecap="butt" d="m733.2677 55.766403l0 60.551186" fill-rule="evenodd"/><path fill="#000000" stroke="#000000" stroke-width="1.0" stroke-linecap="butt" d="m731.61597 116.31759l1.6517334 4.5380936l1.6517334 -4.5380936z" fill-rule="evenodd"/><path fill="#fff2cc" d="m449.59055 203.51443l97.921295 0l0 38.771652l-97.921295 0z" fill-rule="evenodd"/><path stroke="#000000" stroke-width="1.0" stroke-linejoin="round" stroke-linecap="butt" d="m449.59055 203.51443l97.921295 0l0 38.771652l-97.921295 0z" fill-rule="evenodd"/><path fill="#000000" d="m476.18503 223.00777l-2.53125 0.453125q-0.125 -0.75 -0.578125 -1.125q-0.453125 -0.390625 -1.171875 -0.390625q-0.953125 0 -1.53125 0.65625q-0.5625 0.65625 -0.5625 2.203125q0 1.734375 0.578125 2.4375q0.578125 0.703125 1.546875 0.703125q0.734375 0 1.203125 -0.40625q0.46875 -0.421875 0.65625 -1.421875l2.515625 0.421875q-0.390625 1.734375 -1.515625 2.625q-1.109375 0.875 -2.96875 0.875q-2.125 0 -3.390625 -1.328125q-1.25 -1.34375 -1.25 -3.71875q0 -2.390625 1.265625 -3.71875q1.265625 -1.34375 3.421875 -1.34375q1.765625 0 2.796875 0.765625q1.046875 0.75 1.515625 2.3125zm1.7038269 7.453125l2.921875 0.359375q0.0625 0.5 0.328125 0.6875q0.375 0.28125 1.15625 0.28125q1.0 0 1.5 -0.296875q0.328125 -0.203125 0.515625 -0.65625q0.109375 -0.3125 0.109375 -1.171875l0 -1.40625q-1.140625 1.5625 -2.890625 1.5625q-1.953125 0 -3.09375 -1.65625q-0.890625 -1.296875 -0.890625 -3.234375q0 -2.4375 1.171875 -3.71875q1.171875 -1.28125 2.90625 -1.28125q1.796875 0 2.96875 1.578125l0 -1.359375l2.390625 0l0 8.671875q0 1.71875 -0.28125 2.5625q-0.28125 0.84375 -0.796875 1.328125q-0.5 0.484375 -1.359375 0.75q-0.84375 0.28125 -2.15625 0.28125q-2.453125 0 -3.484375 -0.84375q-1.03125 -0.84375 -1.03125 -2.125q0 -0.140625 0.015625 -0.3125zm2.28125 -5.671875q0 1.53125 0.59375 2.25q0.59375 0.71875 1.46875 0.71875q0.9375 0 1.578125 -0.734375q0.65625 -0.734375 0.65625 -2.171875q0 -1.515625 -0.625 -2.234375q-0.609375 -0.734375 -1.5625 -0.734375q-0.921875 0 -1.515625 0.71875q-0.59375 0.71875 -0.59375 2.1875zm7.833496 8.71875l0 -1.65625l10.640625 0l0 1.65625l-10.640625 0zm20.328827 -10.5l-2.53125 0.453125q-0.125 -0.75 -0.578125 -1.125q-0.453125 -0.390625 -1.171875 -0.390625q-0.953125 0 -1.53125 0.65625q-0.5625 0.65625 -0.5625 2.203125q0 1.734375 0.578125 2.4375q0.578125 0.703125 1.546875 0.703125q0.734375 0 1.203125 -0.40625q0.46875 -0.421875 0.65625 -1.421875l2.515625 0.421875q-0.390625 1.734375 -1.515625 2.625q-1.109375 0.875 -2.96875 0.875q-2.125 0 -3.390625 -1.328125q-1.25 -1.34375 -1.25 -3.71875q0 -2.390625 1.265625 -3.71875q1.265625 -1.34375 3.421875 -1.34375q1.765625 0 2.796875 0.765625q1.046875 0.75 1.515625 2.3125zm0.7038574 6.8125l3.4843445 -4.984375l-3.3437195 -4.6875l3.1249695 0l1.71875 2.65625l1.796875 -2.65625l3.015625 0l-3.28125 4.578125l3.578125 5.09375l-3.140625 0l-1.96875 -3.0l-1.984375 3.0l-2.9999695 0zm11.016327 -4.96875q0 -1.28125 0.625 -2.46875q0.625 -1.203125 1.78125 -1.828125q1.15625 -0.625 2.578125 -0.625q2.1875 0 3.59375 1.421875q1.40625 1.421875 1.40625 3.609375q0 2.1875 -1.421875 3.640625q-1.421875 1.4375 -3.5625 1.4375q-1.328125 0 -2.546875 -0.59375q-1.203125 -0.609375 -1.828125 -1.765625q-0.625 -1.171875 -0.625 -2.828125zm2.625 0.125q0 1.453125 0.671875 2.21875q0.6875 0.75 1.6875 0.75q1.0 0 1.671875 -0.75q0.6875 -0.765625 0.6875 -2.234375q0 -1.421875 -0.6875 -2.1875q-0.671875 -0.765625 -1.671875 -0.765625q-1.0 0 -1.6875 0.765625q-0.671875 0.765625 -0.671875 2.203125z" fill-rule="nonzero"/><path fill="#000000" fill-opacity="0.0" d="m498.55118 242.28609l-181.25983 42.425186" fill-rule="evenodd"/><path stroke="#000000" stroke-width="1.0" stroke-linejoin="round" stroke-linecap="butt" d="m498.55118 242.28609l-175.41772 41.057816" fill-rule="evenodd"/><path fill="#000000" stroke="#000000" stroke-width="1.0" stroke-linecap="butt" d="m322.75702 281.73563l-4.0422363 2.6424866l4.795105 0.57406616z" fill-rule="evenodd"/><path fill="#000000" fill-opacity="0.0" d="m498.55118 242.28609l274.99216 42.425186" fill-rule="evenodd"/><path stroke="#000000" stroke-width="1.0" stroke-linejoin="round" stroke-linecap="butt" d="m498.55118 242.28609l269.0623 41.51036" fill-rule="evenodd"/><path fill="#000000" stroke="#000000" stroke-width="1.0" stroke-linecap="butt" d="m767.36163 285.42886l4.7368774 -0.9404907l-4.2332153 -2.3243408z" fill-rule="evenodd"/><path fill="#000000" fill-opacity="0.0" d="m498.55118 55.766403l0 26.236221" fill-rule="evenodd"/><path stroke="#000000" stroke-width="1.0" stroke-linejoin="round" stroke-linecap="butt" d="m498.55118 55.766403l0 20.236221" fill-rule="evenodd"/><path fill="#000000" stroke="#000000" stroke-width="1.0" stroke-linecap="butt" d="m496.89944 76.002625l1.6517334 4.538101l1.6517334 -4.538101z" fill-rule="evenodd"/><path fill="#fff2cc" d="m281.09448 379.2467l179.1496 0l0 56.91339l-179.1496 0z" fill-rule="evenodd"/><path stroke="#000000" stroke-width="1.0" stroke-linejoin="round" stroke-linecap="butt" d="m281.09448 379.2467l179.1496 0l0 56.91339l-179.1496 0z" fill-rule="evenodd"/><path fill="#000000" d="m345.4342 403.6234l-2.5625 0l0 -9.671875l2.375 0l0 1.375q0.609375 -0.984375 1.09375 -1.28125q0.484375 -0.3125 1.109375 -0.3125q0.875 0 1.6875 0.484375l-0.796875 2.234375q-0.640625 -0.421875 -1.203125 -0.421875q-0.53125 0 -0.90625 0.296875q-0.375 0.296875 -0.59375 1.078125q-0.203125 0.765625 -0.203125 3.234375l0 2.984375zm10.400879 -3.078125l2.546875 0.421875q-0.484375 1.40625 -1.546875 2.140625q-1.0625 0.734375 -2.65625 0.734375q-2.515625 0 -3.734375 -1.65625q-0.953125 -1.3125 -0.953125 -3.328125q0 -2.40625 1.25 -3.765625q1.265625 -1.359375 3.1875 -1.359375q2.15625 0 3.40625 1.421875q1.25 1.421875 1.1875 4.375l-6.40625 0q0.03125 1.140625 0.609375 1.78125q0.59375 0.625 1.484375 0.625q0.59375 0 1.0 -0.328125q0.421875 -0.328125 0.625 -1.0625zm0.15625 -2.59375q-0.03125 -1.109375 -0.578125 -1.6875q-0.546875 -0.578125 -1.328125 -0.578125q-0.84375 0 -1.390625 0.609375q-0.546875 0.609375 -0.53125 1.65625l3.828125 0zm13.063232 -1.140625l-2.53125 0.453125q-0.125 -0.75 -0.578125 -1.125q-0.453125 -0.390625 -1.171875 -0.390625q-0.953125 0 -1.53125 0.65625q-0.5625 0.65625 -0.5625 2.203125q0 1.734375 0.578125 2.4375q0.578125 0.703125 1.546875 0.703125q0.734375 0 1.203125 -0.40625q0.46875 -0.421875 0.65625 -1.421875l2.515625 0.421875q-0.390625 1.734375 -1.515625 2.625q-1.109375 0.875 -2.96875 0.875q-2.125 0 -3.390625 -1.328125q-1.25 -1.34375 -1.25 -3.71875q0 -2.390625 1.265625 -3.71875q1.265625 -1.34375 3.421875 -1.34375q1.765625 0 2.796875 0.765625q1.046875 0.75 1.515625 2.3125zm1.3444519 1.84375q0 -1.28125 0.625 -2.46875q0.625 -1.203125 1.78125 -1.828125q1.15625 -0.625 2.578125 -0.625q2.1875 0 3.59375 1.421875q1.40625 1.421875 1.40625 3.609375q0 2.1875 -1.421875 3.640625q-1.421875 1.4375 -3.5625 1.4375q-1.328125 0 -2.546875 -0.59375q-1.203125 -0.609375 -1.828125 -1.765625q-0.625 -1.171875 -0.625 -2.828125zm2.625 0.125q0 1.453125 0.671875 2.21875q0.6875 0.75 1.6875 0.75q1.0 0 1.671875 -0.75q0.6875 -0.765625 0.6875 -2.234375q0 -1.421875 -0.6875 -2.1875q-0.671875 -0.765625 -1.671875 -0.765625q-1.0 0 -1.6875 0.765625q-0.671875 0.765625 -0.671875 2.203125zm11.817871 4.84375l-2.5625 0l0 -9.671875l2.375 0l0 1.375q0.609375 -0.984375 1.09375 -1.28125q0.484375 -0.3125 1.109375 -0.3125q0.875 0 1.6875 0.484375l-0.796875 2.234375q-0.640625 -0.421875 -1.203125 -0.421875q-0.53125 0 -0.90625 0.296875q-0.375 0.296875 -0.59375 1.078125q-0.203125 0.765625 -0.203125 3.234375l0 2.984375zm13.682129 0l-2.390625 0l0 -1.421875q-0.59375 0.828125 -1.40625 1.234375q-0.796875 0.40625 -1.609375 0.40625q-1.671875 0 -2.859375 -1.34375q-1.1875 -1.34375 -1.1875 -3.75q0 -2.453125 1.15625 -3.734375q1.15625 -1.28125 2.921875 -1.28125q1.625 0 2.8125 1.34375l0 -4.8125l2.5625 0l0 13.359375zm-6.84375 -5.046875q0 1.546875 0.4375 2.234375q0.609375 1.015625 1.71875 1.015625q0.890625 0 1.5 -0.75q0.625 -0.765625 0.625 -2.25q0 -1.671875 -0.609375 -2.40625q-0.59375 -0.734375 -1.53125 -0.734375q-0.90625 0 -1.53125 0.734375q-0.609375 0.71875 -0.609375 2.15625z" fill-rule="nonzero"/><path fill="#000000" fill-opacity="0.0" d="m299.65164 408.7344l93.30859 0l0 21.45285l-93.30859 0l0 -21.45285z" fill-rule="nonzero"/><path fill="#000000" d="m307.35477 425.6234l0 -1.453125q-0.53125 0.78125 -1.390625 1.234375q-0.859375 0.4375 -1.8125 0.4375q-0.96875 0 -1.75 -0.421875q-0.765625 -0.4375 -1.125 -1.203125q-0.34375 -0.78125 -0.34375 -2.140625l0 -6.125l2.5625 0l0 4.4375q0 2.046875 0.140625 2.515625q0.140625 0.453125 0.515625 0.71875q0.375 0.265625 0.953125 0.265625q0.65625 0 1.171875 -0.359375q0.515625 -0.359375 0.703125 -0.890625q0.203125 -0.53125 0.203125 -2.609375l0 -4.078125l2.546875 0l0 9.671875l-2.375 0zm4.130371 -2.765625l2.5625 -0.390625q0.171875 0.75 0.671875 1.140625q0.5 0.390625 1.40625 0.390625q0.984375 0 1.484375 -0.375q0.34375 -0.25 0.34375 -0.671875q0 -0.296875 -0.1875 -0.484375q-0.1875 -0.1875 -0.859375 -0.34375q-3.09375 -0.6875 -3.921875 -1.25q-1.140625 -0.78125 -1.140625 -2.171875q0 -1.265625 0.984375 -2.109375q1.0 -0.859375 3.078125 -0.859375q1.984375 0 2.953125 0.65625q0.96875 0.640625 1.328125 1.90625l-2.40625 0.4375q-0.15625 -0.5625 -0.59375 -0.859375q-0.421875 -0.296875 -1.234375 -0.296875q-1.0 0 -1.4375 0.28125q-0.296875 0.203125 -0.296875 0.515625q0 0.265625 0.25 0.46875q0.34375 0.25 2.390625 0.71875q2.046875 0.453125 2.859375 1.140625q0.796875 0.671875 0.796875 1.890625q0 1.34375 -1.109375 2.296875q-1.109375 0.953125 -3.28125 0.953125q-1.984375 0 -3.140625 -0.796875q-1.140625 -0.8125 -1.5 -2.1875zm16.875702 -0.3125l2.546875 0.421875q-0.484375 1.40625 -1.546875 2.140625q-1.0625 0.734375 -2.65625 0.734375q-2.515625 0 -3.734375 -1.65625q-0.953125 -1.3125 -0.953125 -3.328125q0 -2.40625 1.25 -3.765625q1.265625 -1.359375 3.1875 -1.359375q2.15625 0 3.40625 1.421875q1.25 1.421875 1.1875 4.375l-6.40625 0q0.03125 1.140625 0.609375 1.78125q0.59375 0.625 1.484375 0.625q0.59375 0 1.0 -0.328125q0.421875 -0.328125 0.625 -1.0625zm0.15625 -2.59375q-0.03125 -1.109375 -0.578125 -1.6875q-0.546875 -0.578125 -1.328125 -0.578125q-0.84375 0 -1.390625 0.609375q-0.546875 0.609375 -0.53125 1.65625l3.828125 0zm7.0788574 5.671875l-2.5625 0l0 -9.671875l2.375 0l0 1.375q0.609375 -0.984375 1.09375 -1.28125q0.484375 -0.3125 1.109375 -0.3125q0.875 0 1.6875 0.484375l-0.796875 2.234375q-0.640625 -0.421875 -1.203125 -0.421875q-0.53125 0 -0.90625 0.296875q-0.375 0.296875 -0.59375 1.078125q-0.203125 0.765625 -0.203125 3.234375l0 2.984375zm7.260254 0l-2.5625 0l0 -9.671875l2.375 0l0 1.375q0.609375 -0.984375 1.09375 -1.28125q0.484375 -0.3125 1.109375 -0.3125q0.875 0 1.6875 0.484375l-0.796875 2.234375q-0.640625 -0.421875 -1.203125 -0.421875q-0.53125 0 -0.90625 0.296875q-0.375 0.296875 -0.59375 1.078125q-0.203125 0.765625 -0.203125 3.234375l0 2.984375zm10.400909 -3.078125l2.546875 0.421875q-0.484375 1.40625 -1.546875 2.140625q-1.0625 0.734375 -2.65625 0.734375q-2.515625 0 -3.734375 -1.65625q-0.953125 -1.3125 -0.953125 -3.328125q0 -2.40625 1.25 -3.765625q1.265625 -1.359375 3.1875 -1.359375q2.15625 0 3.40625 1.421875q1.25 1.421875 1.1875 4.375l-6.40625 0q0.03125 1.140625 0.609375 1.78125q0.59375 0.625 1.484375 0.625q0.59375 0 1.0 -0.328125q0.421875 -0.328125 0.625 -1.0625zm0.15625 -2.59375q-0.03125 -1.109375 -0.578125 -1.6875q-0.546875 -0.578125 -1.328125 -0.578125q-0.84375 0 -1.390625 0.609375q-0.546875 0.609375 -0.53125 1.65625l3.828125 0zm4.547577 -4.0l2.390625 0l0 1.421875q0.46875 -0.734375 1.25 -1.1875q0.796875 -0.453125 1.765625 -0.453125q1.6875 0 2.859375 1.328125q1.171875 1.3125 1.171875 3.671875q0 2.421875 -1.1875 3.765625q-1.1875 1.34375 -2.859375 1.34375q-0.8125 0 -1.46875 -0.3125q-0.640625 -0.328125 -1.359375 -1.09375l0 4.875l-2.5625 0l0 -13.359375zm2.53125 4.671875q0 1.625 0.640625 2.40625q0.65625 0.78125 1.578125 0.78125q0.90625 0 1.484375 -0.71875q0.59375 -0.71875 0.59375 -2.34375q0 -1.515625 -0.609375 -2.25q-0.609375 -0.75 -1.515625 -0.75q-0.9375 0 -1.5625 0.734375q-0.609375 0.71875 -0.609375 2.140625zm8.349121 0.03125q0 -1.28125 0.625 -2.46875q0.625 -1.203125 1.78125 -1.828125q1.15625 -0.625 2.578125 -0.625q2.1875 0 3.59375 1.421875q1.40625 1.421875 1.40625 3.609375q0 2.1875 -1.421875 3.640625q-1.421875 1.4375 -3.5625 1.4375q-1.328125 0 -2.546875 -0.59375q-1.203125 -0.609375 -1.828125 -1.765625q-0.625 -1.171875 -0.625 -2.828125zm2.625 0.125q0 1.453125 0.671875 2.21875q0.6875 0.75 1.6875 0.75q1.0 0 1.671875 -0.75q0.6875 -0.765625 0.6875 -2.234375q0 -1.421875 -0.6875 -2.1875q-0.671875 -0.765625 -1.671875 -0.765625q-1.0 0 -1.6875 0.765625q-0.671875 0.765625 -0.671875 2.203125zm11.817841 4.84375l-2.5625 0l0 -9.671875l2.375 0l0 1.375q0.609375 -0.984375 1.09375 -1.28125q0.484375 -0.3125 1.109375 -0.3125q0.875 0 1.6875 0.484375l-0.796875 2.234375q-0.640625 -0.421875 -1.203125 -0.421875q-0.53125 0 -0.90625 0.296875q-0.375 0.296875 -0.59375 1.078125q-0.203125 0.765625 -0.203125 3.234375l0 2.984375zm9.244659 -9.671875l0 2.03125l-1.75 0l0 3.90625q0 1.1875 0.046875 1.390625q0.046875 0.1875 0.21875 0.3125q0.1875 0.125 0.4375 0.125q0.359375 0 1.03125 -0.25l0.21875 2.0q-0.890625 0.375 -2.015625 0.375q-0.703125 0 -1.265625 -0.234375q-0.546875 -0.234375 -0.8125 -0.59375q-0.25 -0.375 -0.34375 -1.0q-0.09375 -0.453125 -0.09375 -1.8125l0 -4.21875l-1.171875 0l0 -2.03125l1.171875 0l0 -1.921875l2.578125 -1.5l0 3.421875l1.75 0z" fill-rule="nonzero"/><path fill="#000000" fill-opacity="0.0" d="m398.14352 408.7344l43.543396 0l0 21.45285l-43.543396 0l0 -21.45285z" fill-rule="nonzero"/><path fill="#000000" d="m401.28415 425.6234l-3.0625 -9.671875l2.484375 0l1.8125 6.34375l1.671875 -6.34375l2.46875 0l1.609375 6.34375l1.859375 -6.34375l2.515625 0l-3.109375 9.671875l-2.453125 0l-1.671875 -6.21875l-1.640625 6.21875l-2.484375 0zm15.167694 0l-2.5625 0l0 -9.671875l2.375 0l0 1.375q0.609375 -0.984375 1.09375 -1.28125q0.484375 -0.3125 1.109375 -0.3125q0.875 0 1.6875 0.484375l-0.796875 2.234375q-0.640625 -0.421875 -1.203125 -0.421875q-0.53125 0 -0.90625 0.296875q-0.375 0.296875 -0.59375 1.078125q-0.203125 0.765625 -0.203125 3.234375l0 2.984375zm4.807129 -10.984375l0 -2.375l2.5625 0l0 2.375l-2.5625 0zm0 10.984375l0 -9.671875l2.5625 0l0 9.671875l-2.5625 0zm9.620819 -9.671875l0 2.03125l-1.75 0l0 3.90625q0 1.1875 0.046875 1.390625q0.046875 0.1875 0.21875 0.3125q0.1875 0.125 0.4375 0.125q0.359375 0 1.03125 -0.25l0.21875 2.0q-0.890625 0.375 -2.015625 0.375q-0.703125 0 -1.265625 -0.234375q-0.546875 -0.234375 -0.8125 -0.59375q-0.25 -0.375 -0.34375 -1.0q-0.09375 -0.453125 -0.09375 -1.8125l0 -4.21875l-1.171875 0l0 -2.03125l1.171875 0l0 -1.921875l2.578125 -1.5l0 3.421875l1.75 0zm7.368927 6.59375l2.546875 0.421875q-0.484375 1.40625 -1.546875 2.140625q-1.0625 0.734375 -2.65625 0.734375q-2.515625 0 -3.734375 -1.65625q-0.953125 -1.3125 -0.953125 -3.328125q0 -2.40625 1.25 -3.765625q1.265625 -1.359375 3.1875 -1.359375q2.15625 0 3.40625 1.421875q1.25 1.421875 1.1875 4.375l-6.40625 0q0.03125 1.140625 0.609375 1.78125q0.59375 0.625 1.484375 0.625q0.59375 0 1.0 -0.328125q0.421875 -0.328125 0.625 -1.0625zm0.15625 -2.59375q-0.03125 -1.109375 -0.578125 -1.6875q-0.546875 -0.578125 -1.328125 -0.578125q-0.84375 0 -1.390625 0.609375q-0.546875 0.609375 -0.53125 1.65625l3.828125 0z" fill-rule="nonzero"/><path fill="#010000" fill-opacity="0.0" d="m441.68692 408.7344l0 0l0 21.45285l0 0l0 -21.45285z" fill-rule="nonzero"/><path fill="#000000" d="m299.65164 426.83673l93.30859 0l0 1.6800232l-93.30859 0l0 -1.6800232z" fill-rule="nonzero"/><path fill="#000000" d="m398.14352 426.83673l43.543396 0l0 1.6800232l-43.543396 0l0 -1.6800232z" fill-rule="nonzero"/><path fill="#fff2cc" d="m587.09973 379.2467l179.1496 0l0 56.91339l-179.1496 0z" fill-rule="evenodd"/><path stroke="#000000" stroke-width="1.0" stroke-linejoin="round" stroke-linecap="butt" d="m587.09973 379.2467l179.1496 0l0 56.91339l-179.1496 0z" fill-rule="evenodd"/><path fill="#000000" d="m651.43945 403.6234l-2.5625 0l0 -9.671875l2.375 0l0 1.375q0.609375 -0.984375 1.09375 -1.28125q0.484375 -0.3125 1.109375 -0.3125q0.875 0 1.6875 0.484375l-0.796875 2.234375q-0.640625 -0.421875 -1.203125 -0.421875q-0.53125 0 -0.90625 0.296875q-0.375 0.296875 -0.59375 1.078125q-0.203125 0.765625 -0.203125 3.234375l0 2.984375zm10.400879 -3.078125l2.546875 0.421875q-0.484375 1.40625 -1.546875 2.140625q-1.0625 0.734375 -2.65625 0.734375q-2.515625 0 -3.734375 -1.65625q-0.953125 -1.3125 -0.953125 -3.328125q0 -2.40625 1.25 -3.765625q1.265625 -1.359375 3.1875 -1.359375q2.15625 0 3.40625 1.421875q1.25 1.421875 1.1875 4.375l-6.40625 0q0.03125 1.140625 0.609375 1.78125q0.59375 0.625 1.484375 0.625q0.59375 0 1.0 -0.328125q0.421875 -0.328125 0.625 -1.0625zm0.15625 -2.59375q-0.03125 -1.109375 -0.578125 -1.6875q-0.546875 -0.578125 -1.328125 -0.578125q-0.84375 0 -1.390625 0.609375q-0.546875 0.609375 -0.53125 1.65625l3.828125 0zm13.063232 -1.140625l-2.53125 0.453125q-0.125 -0.75 -0.578125 -1.125q-0.453125 -0.390625 -1.171875 -0.390625q-0.953125 0 -1.53125 0.65625q-0.5625 0.65625 -0.5625 2.203125q0 1.734375 0.578125 2.4375q0.578125 0.703125 1.546875 0.703125q0.734375 0 1.203125 -0.40625q0.46875 -0.421875 0.65625 -1.421875l2.515625 0.421875q-0.390625 1.734375 -1.515625 2.625q-1.109375 0.875 -2.96875 0.875q-2.125 0 -3.390625 -1.328125q-1.25 -1.34375 -1.25 -3.71875q0 -2.390625 1.265625 -3.71875q1.265625 -1.34375 3.421875 -1.34375q1.765625 0 2.796875 0.765625q1.046875 0.75 1.515625 2.3125zm1.3444824 1.84375q0 -1.28125 0.625 -2.46875q0.625 -1.203125 1.78125 -1.828125q1.15625 -0.625 2.578125 -0.625q2.1875 0 3.59375 1.421875q1.40625 1.421875 1.40625 3.609375q0 2.1875 -1.421875 3.640625q-1.421875 1.4375 -3.5625 1.4375q-1.328125 0 -2.546875 -0.59375q-1.203125 -0.609375 -1.828125 -1.765625q-0.625 -1.171875 -0.625 -2.828125zm2.625 0.125q0 1.453125 0.671875 2.21875q0.6875 0.75 1.6875 0.75q1.0 0 1.671875 -0.75q0.6875 -0.765625 0.6875 -2.234375q0 -1.421875 -0.6875 -2.1875q-0.671875 -0.765625 -1.671875 -0.765625q-1.0 0 -1.6875 0.765625q-0.671875 0.765625 -0.671875 2.203125zm11.81781 4.84375l-2.5625 0l0 -9.671875l2.375 0l0 1.375q0.609375 -0.984375 1.09375 -1.28125q0.484375 -0.3125 1.109375 -0.3125q0.875 0 1.6875 0.484375l-0.796875 2.234375q-0.640625 -0.421875 -1.203125 -0.421875q-0.53125 0 -0.90625 0.296875q-0.375 0.296875 -0.59375 1.078125q-0.203125 0.765625 -0.203125 3.234375l0 2.984375zm13.68219 0l-2.390625 0l0 -1.421875q-0.59375 0.828125 -1.40625 1.234375q-0.796875 0.40625 -1.609375 0.40625q-1.671875 0 -2.859375 -1.34375q-1.1875 -1.34375 -1.1875 -3.75q0 -2.453125 1.15625 -3.734375q1.15625 -1.28125 2.921875 -1.28125q1.625 0 2.8125 1.34375l0 -4.8125l2.5625 0l0 13.359375zm-6.84375 -5.046875q0 1.546875 0.4375 2.234375q0.609375 1.015625 1.71875 1.015625q0.890625 0 1.5 -0.75q0.625 -0.765625 0.625 -2.25q0 -1.671875 -0.609375 -2.40625q-0.59375 -0.734375 -1.53125 -0.734375q-0.90625 0 -1.53125 0.734375q-0.609375 0.71875 -0.609375 2.15625z" fill-rule="nonzero"/><path fill="#000000" fill-opacity="0.0" d="m607.72473 408.7344l11.395996 0l0 21.45285l-11.395996 0l0 -21.45285z" fill-rule="nonzero"/><path fill="#000000" d="m615.42786 425.6234l0 -1.453125q-0.53125 0.78125 -1.390625 1.234375q-0.859375 0.4375 -1.8125 0.4375q-0.96875 0 -1.75 -0.421875q-0.765625 -0.4375 -1.125 -1.203125q-0.34375 -0.78125 -0.34375 -2.140625l0 -6.125l2.5625 0l0 4.4375q0 2.046875 0.140625 2.515625q0.140625 0.453125 0.515625 0.71875q0.375 0.265625 0.953125 0.265625q0.65625 0 1.171875 -0.359375q0.515625 -0.359375 0.703125 -0.890625q0.203125 -0.53125 0.203125 -2.609375l0 -4.078125l2.546875 0l0 9.671875l-2.375 0z" fill-rule="nonzero"/><path fill="#010000" fill-opacity="0.0" d="m619.1207 408.7344l81.9126 0l0 21.45285l-81.9126 0l0 -21.45285z" fill-rule="nonzero"/><path fill="#000000" d="m619.5582 422.8578l2.5625 -0.390625q0.171875 0.75 0.671875 1.140625q0.5 0.390625 1.40625 0.390625q0.984375 0 1.484375 -0.375q0.34375 -0.25 0.34375 -0.671875q0 -0.296875 -0.1875 -0.484375q-0.1875 -0.1875 -0.859375 -0.34375q-3.09375 -0.6875 -3.921875 -1.25q-1.140625 -0.78125 -1.140625 -2.171875q0 -1.265625 0.984375 -2.109375q1.0 -0.859375 3.078125 -0.859375q1.984375 0 2.953125 0.65625q0.96875 0.640625 1.328125 1.90625l-2.40625 0.4375q-0.15625 -0.5625 -0.59375 -0.859375q-0.421875 -0.296875 -1.234375 -0.296875q-1.0 0 -1.4375 0.28125q-0.296875 0.203125 -0.296875 0.515625q0 0.265625 0.25 0.46875q0.34375 0.25 2.390625 0.71875q2.046875 0.453125 2.859375 1.140625q0.796875 0.671875 0.796875 1.890625q0 1.34375 -1.109375 2.296875q-1.109375 0.953125 -3.28125 0.953125q-1.984375 0 -3.140625 -0.796875q-1.140625 -0.8125 -1.5 -2.1875zm16.875732 -0.3125l2.546875 0.421875q-0.484375 1.40625 -1.546875 2.140625q-1.0625 0.734375 -2.65625 0.734375q-2.515625 0 -3.734375 -1.65625q-0.953125 -1.3125 -0.953125 -3.328125q0 -2.40625 1.25 -3.765625q1.265625 -1.359375 3.1875 -1.359375q2.15625 0 3.40625 1.421875q1.25 1.421875 1.1875 4.375l-6.40625 0q0.03125 1.140625 0.609375 1.78125q0.59375 0.625 1.484375 0.625q0.59375 0 1.0 -0.328125q0.421875 -0.328125 0.625 -1.0625zm0.15625 -2.59375q-0.03125 -1.109375 -0.578125 -1.6875q-0.546875 -0.578125 -1.328125 -0.578125q-0.84375 0 -1.390625 0.609375q-0.546875 0.609375 -0.53125 1.65625l3.828125 0zm7.0788574 5.671875l-2.5625 0l0 -9.671875l2.375 0l0 1.375q0.609375 -0.984375 1.09375 -1.28125q0.484375 -0.3125 1.109375 -0.3125q0.875 0 1.6875 0.484375l-0.796875 2.234375q-0.640625 -0.421875 -1.203125 -0.421875q-0.53125 0 -0.90625 0.296875q-0.375 0.296875 -0.59375 1.078125q-0.203125 0.765625 -0.203125 3.234375l0 2.984375zm7.260254 0l-2.5625 0l0 -9.671875l2.375 0l0 1.375q0.609375 -0.984375 1.09375 -1.28125q0.484375 -0.3125 1.109375 -0.3125q0.875 0 1.6875 0.484375l-0.796875 2.234375q-0.640625 -0.421875 -1.203125 -0.421875q-0.53125 0 -0.90625 0.296875q-0.375 0.296875 -0.59375 1.078125q-0.203125 0.765625 -0.203125 3.234375l0 2.984375zm10.400879 -3.078125l2.546875 0.421875q-0.484375 1.40625 -1.546875 2.140625q-1.0625 0.734375 -2.65625 0.734375q-2.515625 0 -3.734375 -1.65625q-0.953125 -1.3125 -0.953125 -3.328125q0 -2.40625 1.25 -3.765625q1.265625 -1.359375 3.1875 -1.359375q2.15625 0 3.40625 1.421875q1.25 1.421875 1.1875 4.375l-6.40625 0q0.03125 1.140625 0.609375 1.78125q0.59375 0.625 1.484375 0.625q0.59375 0 1.0 -0.328125q0.421875 -0.328125 0.625 -1.0625zm0.15625 -2.59375q-0.03125 -1.109375 -0.578125 -1.6875q-0.546875 -0.578125 -1.328125 -0.578125q-0.84375 0 -1.390625 0.609375q-0.546875 0.609375 -0.53125 1.65625l3.828125 0zm4.5476074 -4.0l2.390625 0l0 1.421875q0.46875 -0.734375 1.25 -1.1875q0.796875 -0.453125 1.765625 -0.453125q1.6875 0 2.859375 1.328125q1.171875 1.3125 1.171875 3.671875q0 2.421875 -1.1875 3.765625q-1.1875 1.34375 -2.859375 1.34375q-0.8125 0 -1.46875 -0.3125q-0.640625 -0.328125 -1.359375 -1.09375l0 4.875l-2.5625 0l0 -13.359375zm2.53125 4.671875q0 1.625 0.640625 2.40625q0.65625 0.78125 1.578125 0.78125q0.90625 0 1.484375 -0.71875q0.59375 -0.71875 0.59375 -2.34375q0 -1.515625 -0.609375 -2.25q-0.609375 -0.75 -1.515625 -0.75q-0.9375 0 -1.5625 0.734375q-0.609375 0.71875 -0.609375 2.140625zm8.349121 0.03125q0 -1.28125 0.625 -2.46875q0.625 -1.203125 1.78125 -1.828125q1.15625 -0.625 2.578125 -0.625q2.1875 0 3.59375 1.421875q1.40625 1.421875 1.40625 3.609375q0 2.1875 -1.421875 3.640625q-1.421875 1.4375 -3.5625 1.4375q-1.328125 0 -2.546875 -0.59375q-1.203125 -0.609375 -1.828125 -1.765625q-0.625 -1.171875 -0.625 -2.828125zm2.625 0.125q0 1.453125 0.671875 2.21875q0.6875 0.75 1.6875 0.75q1.0 0 1.671875 -0.75q0.6875 -0.765625 0.6875 -2.234375q0 -1.421875 -0.6875 -2.1875q-0.671875 -0.765625 -1.671875 -0.765625q-1.0 0 -1.6875 0.765625q-0.671875 0.765625 -0.671875 2.203125zm11.81781 4.84375l-2.5625 0l0 -9.671875l2.375 0l0 1.375q0.609375 -0.984375 1.09375 -1.28125q0.484375 -0.3125 1.109375 -0.3125q0.875 0 1.6875 0.484375l-0.796875 2.234375q-0.640625 -0.421875 -1.203125 -0.421875q-0.53125 0 -0.90625 0.296875q-0.375 0.296875 -0.59375 1.078125q-0.203125 0.765625 -0.203125 3.234375l0 2.984375zm9.24469 -9.671875l0 2.03125l-1.75 0l0 3.90625q0 1.1875 0.046875 1.390625q0.046875 0.1875 0.21875 0.3125q0.1875 0.125 0.4375 0.125q0.359375 0 1.03125 -0.25l0.21875 2.0q-0.890625 0.375 -2.015625 0.375q-0.703125 0 -1.265625 -0.234375q-0.546875 -0.234375 -0.8125 -0.59375q-0.25 -0.375 -0.34375 -1.0q-0.09375 -0.453125 -0.09375 -1.8125l0 -4.21875l-1.171875 0l0 -2.03125l1.171875 0l0 -1.921875l2.578125 -1.5l0 3.421875l1.75 0z" fill-rule="nonzero"/><path fill="#010000" fill-opacity="0.0" d="m706.2166 408.7344l39.407715 0l0 21.45285l-39.407715 0l0 -21.45285z" fill-rule="nonzero"/><path fill="#000000" d="m710.0135 425.6234l-2.5625 0l0 -9.671875l2.375 0l0 1.375q0.609375 -0.984375 1.09375 -1.28125q0.484375 -0.3125 1.109375 -0.3125q0.875 0 1.6875 0.484375l-0.796875 2.234375q-0.640625 -0.421875 -1.203125 -0.421875q-0.53125 0 -0.90625 0.296875q-0.375 0.296875 -0.59375 1.078125q-0.203125 0.765625 -0.203125 3.234375l0 2.984375zm10.40094 -3.078125l2.546875 0.421875q-0.484375 1.40625 -1.546875 2.140625q-1.0625 0.734375 -2.65625 0.734375q-2.515625 0 -3.734375 -1.65625q-0.953125 -1.3125 -0.953125 -3.328125q0 -2.40625 1.25 -3.765625q1.265625 -1.359375 3.1875 -1.359375q2.15625 0 3.40625 1.421875q1.25 1.421875 1.1875 4.375l-6.40625 0q0.03125 1.140625 0.609375 1.78125q0.59375 0.625 1.484375 0.625q0.59375 0 1.0 -0.328125q0.421875 -0.328125 0.625 -1.0625zm0.15625 -2.59375q-0.03125 -1.109375 -0.578125 -1.6875q-0.546875 -0.578125 -1.328125 -0.578125q-0.84375 0 -1.390625 0.609375q-0.546875 0.609375 -0.53125 1.65625l3.828125 0zm6.5319824 -1.046875l-2.328125 -0.421875q0.40625 -1.40625 1.359375 -2.078125q0.953125 -0.671875 2.84375 -0.671875q1.703125 0 2.546875 0.40625q0.84375 0.40625 1.171875 1.03125q0.34375 0.625 0.34375 2.28125l-0.015625 3.0q0 1.265625 0.109375 1.875q0.125 0.609375 0.46875 1.296875l-2.53125 0q-0.109375 -0.25 -0.25 -0.75q-0.0625 -0.234375 -0.09375 -0.3125q-0.65625 0.640625 -1.40625 0.96875q-0.734375 0.3125 -1.59375 0.3125q-1.484375 0 -2.34375 -0.8125q-0.859375 -0.8125 -0.859375 -2.046875q0 -0.828125 0.390625 -1.46875q0.390625 -0.640625 1.09375 -0.96875q0.703125 -0.34375 2.03125 -0.609375q1.796875 -0.328125 2.484375 -0.625l0 -0.25q0 -0.75 -0.359375 -1.0625q-0.359375 -0.3125 -1.375 -0.3125q-0.6875 0 -1.078125 0.28125q-0.375 0.265625 -0.609375 0.9375zm3.421875 2.078125q-0.484375 0.15625 -1.5625 0.390625q-1.0625 0.21875 -1.390625 0.4375q-0.5 0.359375 -0.5 0.90625q0 0.53125 0.40625 0.9375q0.40625 0.390625 1.015625 0.390625q0.703125 0 1.328125 -0.46875q0.46875 -0.34375 0.609375 -0.84375q0.09375 -0.328125 0.09375 -1.25l0 -0.5zm13.922546 4.640625l-2.390625 0l0 -1.421875q-0.59375 0.828125 -1.40625 1.234375q-0.796875 0.40625 -1.609375 0.40625q-1.671875 0 -2.859375 -1.34375q-1.1875 -1.34375 -1.1875 -3.75q0 -2.453125 1.15625 -3.734375q1.15625 -1.28125 2.921875 -1.28125q1.625 0 2.8125 1.34375l0 -4.8125l2.5625 0l0 13.359375zm-6.84375 -5.046875q0 1.546875 0.4375 2.234375q0.609375 1.015625 1.71875 1.015625q0.890625 0 1.5 -0.75q0.625 -0.765625 0.625 -2.25q0 -1.671875 -0.609375 -2.40625q-0.59375 -0.734375 -1.53125 -0.734375q-0.90625 0 -1.53125 0.734375q-0.609375 0.71875 -0.609375 2.15625z" fill-rule="nonzero"/><path fill="#010000" fill-opacity="0.0" d="m745.6243 408.7344l0 0l0 21.45285l0 0l0 -21.45285z" fill-rule="nonzero"/><path fill="#000000" d="m607.72473 426.83673l93.30859 0l0 1.6800232l-93.30859 0l0 -1.6800232z" fill-rule="nonzero"/><path fill="#000000" d="m706.2166 426.83673l39.407715 0l0 1.6800232l-39.407715 0l0 -1.6800232z" fill-rule="nonzero"/><path fill="#fff2cc" d="m288.542 150.85301l57.480316 0l0 38.771652l-57.480316 0z" fill-rule="evenodd"/><path stroke="#000000" stroke-width="1.0" stroke-linejoin="round" stroke-linecap="butt" d="m288.542 150.85301l57.480316 0l0 38.771652l-57.480316 0z" fill-rule="evenodd"/><path fill="#000000" d="m308.91156 177.15884l0 -1.453125q-0.53125 0.78125 -1.390625 1.234375q-0.859375 0.4375 -1.8125 0.4375q-0.96875 0 -1.75 -0.421875q-0.765625 -0.4375 -1.125 -1.203125q-0.34375 -0.78125 -0.34375 -2.140625l0 -6.125l2.5625 0l0 4.4375q0 2.046875 0.140625 2.515625q0.140625 0.453125 0.515625 0.71875q0.375 0.265625 0.953125 0.265625q0.65625 0 1.171875 -0.359375q0.515625 -0.359375 0.703125 -0.890625q0.203125 -0.53125 0.203125 -2.609375l0 -4.078125l2.546875 0l0 9.671875l-2.375 0zm3.520996 3.6875l0 -1.65625l10.640625 0l0 1.65625l-10.640625 0zm11.250702 -7.234375l2.46875 -0.296875q0.125 0.953125 0.640625 1.453125q0.53125 0.5 1.265625 0.5q0.78125 0 1.328125 -0.59375q0.546875 -0.609375 0.546875 -1.640625q0 -0.953125 -0.53125 -1.515625q-0.515625 -0.578125 -1.25 -0.578125q-0.5 0 -1.1875 0.203125l0.28125 -2.09375q1.046875 0.03125 1.59375 -0.4375q0.546875 -0.484375 0.546875 -1.28125q0 -0.671875 -0.40625 -1.078125q-0.390625 -0.40625 -1.0625 -0.40625q-0.65625 0 -1.125 0.46875q-0.453125 0.453125 -0.5625 1.328125l-2.359375 -0.40625q0.25 -1.203125 0.734375 -1.921875q0.5 -0.734375 1.390625 -1.140625q0.890625 -0.421875 2.0 -0.421875q1.875 0 3.015625 1.203125q0.9375 0.984375 0.9375 2.21875q0 1.765625 -1.921875 2.8125q1.15625 0.234375 1.84375 1.09375q0.6875 0.859375 0.6875 2.0625q0 1.765625 -1.296875 3.015625q-1.28125 1.234375 -3.1875 1.234375q-1.8125 0 -3.015625 -1.046875q-1.1875 -1.046875 -1.375 -2.734375z" fill-rule="nonzero"/><path fill="#000000" fill-opacity="0.0" d="m317.28217 189.62466l0 95.08661" fill-rule="evenodd"/><path stroke="#000000" stroke-width="1.0" stroke-linejoin="round" stroke-linecap="butt" d="m317.28217 189.62466l0 89.08661" fill-rule="evenodd"/><path fill="#000000" stroke="#000000" stroke-width="1.0" stroke-linecap="butt" d="m315.63043 278.71127l1.6517334 4.5381165l1.6517334 -4.5381165z" fill-rule="evenodd"/><path fill="#000000" fill-opacity="0.0" d="m317.28348 323.48294l53.385803 55.77954" fill-rule="evenodd"/><path stroke="#000000" stroke-width="1.0" stroke-linejoin="round" stroke-linecap="butt" d="m317.28348 323.48294l49.237183 51.444885" fill-rule="evenodd"/><path fill="#000000" stroke="#000000" stroke-width="1.0" stroke-linecap="butt" d="m365.3274 376.06992l4.331085 2.1364136l-1.944519 -4.4205627z" fill-rule="evenodd"/><path fill="#000000" fill-opacity="0.0" d="m317.28348 323.48294l359.40158 55.77954" fill-rule="evenodd"/><path stroke="#000000" stroke-width="1.0" stroke-linejoin="round" stroke-linecap="butt" d="m317.28348 323.48294l353.47256 54.859344" fill-rule="evenodd"/><path fill="#000000" stroke="#000000" stroke-width="1.0" stroke-linecap="butt" d="m670.5027 379.97446l4.737732 -0.93618774l-4.231079 -2.328186z" fill-rule="evenodd"/><path fill="#000000" fill-opacity="0.0" d="m773.5512 323.48163l-96.8819 55.77954" fill-rule="evenodd"/><path stroke="#000000" stroke-width="1.0" stroke-linejoin="round" stroke-linecap="butt" d="m773.5512 323.48163l-91.68213 52.785767" fill-rule="evenodd"/><path fill="#000000" stroke="#000000" stroke-width="1.0" stroke-linecap="butt" d="m681.0449 374.83597l-3.1087036 3.6957703l4.756958 -0.83288574z" fill-rule="evenodd"/><path fill="#000000" fill-opacity="0.0" d="m676.67456 436.1601l-46.55121 102.11023" fill-rule="evenodd"/><path stroke="#000000" stroke-width="1.0" stroke-linejoin="round" stroke-linecap="butt" stroke-dasharray="4.0,3.0" d="m676.67456 436.1601l-44.062317 96.65082" fill-rule="evenodd"/><path fill="#000000" stroke="#000000" stroke-width="1.0" stroke-linecap="butt" d="m631.1094 532.12573l-0.37957764 4.814392l3.385376 -3.4440308z" fill-rule="evenodd"/><path fill="#000000" fill-opacity="0.0" d="m370.66928 436.1601l57.480316 102.11023" fill-rule="evenodd"/><path stroke="#000000" stroke-width="1.0" stroke-linejoin="round" stroke-linecap="butt" stroke-dasharray="4.0,3.0" d="m370.66928 436.1601l54.53708 96.881714" fill-rule="evenodd"/><path fill="#000000" stroke="#000000" stroke-width="1.0" stroke-linecap="butt" d="m423.767 533.85205l3.6654968 3.1443481l-0.7868042 -4.7648315z" fill-rule="evenodd"/><path fill="#fff2cc" d="m207.97507 150.85301l57.480316 0l0 38.771652l-57.480316 0z" fill-rule="evenodd"/><path stroke="#000000" stroke-width="1.0" stroke-linejoin="round" stroke-linecap="butt" d="m207.97507 150.85301l57.480316 0l0 38.771652l-57.480316 0z" fill-rule="evenodd"/><path fill="#000000" d="m224.40164 170.4401l-2.328125 -0.421875q0.40625 -1.40625 1.359375 -2.078125q0.953125 -0.671875 2.84375 -0.671875q1.703125 0 2.546875 0.40625q0.84375 0.40625 1.171875 1.03125q0.34375 0.625 0.34375 2.28125l-0.015625 3.0q0 1.265625 0.109375 1.875q0.125 0.609375 0.46875 1.296875l-2.53125 0q-0.109375 -0.25 -0.25 -0.75q-0.0625 -0.234375 -0.09375 -0.3125q-0.65625 0.640625 -1.40625 0.96875q-0.734375 0.3125 -1.59375 0.3125q-1.484375 0 -2.34375 -0.8125q-0.859375 -0.8125 -0.859375 -2.046875q0 -0.828125 0.390625 -1.46875q0.390625 -0.640625 1.09375 -0.96875q0.703125 -0.34375 2.03125 -0.609375q1.796875 -0.328125 2.484375 -0.625l0 -0.25q0 -0.75 -0.359375 -1.0625q-0.359375 -0.3125 -1.375 -0.3125q-0.6875 0 -1.078125 0.28125q-0.375 0.265625 -0.609375 0.9375zm3.421875 2.078125q-0.484375 0.15625 -1.5625 0.390625q-1.0625 0.21875 -1.390625 0.4375q-0.5 0.359375 -0.5 0.90625q0 0.53125 0.40625 0.9375q0.40625 0.390625 1.015625 0.390625q0.703125 0 1.328125 -0.46875q0.46875 -0.34375 0.609375 -0.84375q0.09375 -0.328125 0.09375 -1.25l0 -0.5zm3.5319672 8.328125l0 -1.65625l10.640625 0l0 1.65625l-10.640625 0zm11.250717 -7.234375l2.46875 -0.296875q0.125 0.953125 0.640625 1.453125q0.53125 0.5 1.265625 0.5q0.78125 0 1.328125 -0.59375q0.546875 -0.609375 0.546875 -1.640625q0 -0.953125 -0.53125 -1.515625q-0.515625 -0.578125 -1.25 -0.578125q-0.5 0 -1.1875 0.203125l0.28125 -2.09375q1.046875 0.03125 1.59375 -0.4375q0.546875 -0.484375 0.546875 -1.28125q0 -0.671875 -0.40625 -1.078125q-0.390625 -0.40625 -1.0625 -0.40625q-0.65625 0 -1.125 0.46875q-0.453125 0.453125 -0.5625 1.328125l-2.359375 -0.40625q0.25 -1.203125 0.734375 -1.921875q0.5 -0.734375 1.390625 -1.140625q0.890625 -0.421875 2.0 -0.421875q1.875 0 3.015625 1.203125q0.9375 0.984375 0.9375 2.21875q0 1.765625 -1.921875 2.8125q1.15625 0.234375 1.84375 1.09375q0.6875 0.859375 0.6875 2.0625q0 1.765625 -1.296875 3.015625q-1.28125 1.234375 -3.1875 1.234375q-1.8125 0 -3.015625 -1.046875q-1.1875 -1.046875 -1.375 -2.734375z" fill-rule="nonzero"/><path fill="#000000" fill-opacity="0.0" d="m288.542 170.23885l-23.086609 0" fill-rule="evenodd"/><path stroke="#000000" stroke-width="1.0" stroke-linejoin="round" stroke-linecap="butt" d="m288.542 170.23885l-17.086609 0" fill-rule="evenodd"/><path fill="#000000" stroke="#000000" stroke-width="1.0" stroke-linecap="butt" d="m271.45538 168.58711l-4.538086 1.6517334l4.538086 1.6517334z" fill-rule="evenodd"/><path fill="#000000" fill-opacity="0.0" d="m538.8333 141.7021l-40.283447 61.826767" fill-rule="evenodd"/><path stroke="#000000" stroke-width="1.0" stroke-linejoin="round" stroke-linecap="butt" d="m538.8333 141.7021l-37.008026 56.799683" fill-rule="evenodd"/><path fill="#000000" stroke="#000000" stroke-width="1.0" stroke-linecap="butt" d="m500.44138 197.6001l-1.0934448 4.7039185l3.861267 -2.9005432z" fill-rule="evenodd"/><path fill="#f4cccc" d="m655.2349 135.76274l0 0c0 -7.419037 6.014282 -13.433342 13.43335 -13.433342l129.19629 0c3.5627441 0 6.979553 1.4152908 9.498779 3.9345322c2.519287 2.5192413 3.9345703 5.9360657 3.9345703 9.49881l0 53.731735c0 7.419037 -6.0143433 13.43335 -13.43335 13.43335l-129.19629 0c-7.4190674 0 -13.43335 -6.0143127 -13.43335 -13.43335z" fill-rule="evenodd"/><path stroke="#000000" stroke-width="1.0" stroke-linejoin="round" stroke-linecap="butt" d="m655.2349 135.76274l0 0c0 -7.419037 6.014282 -13.433342 13.43335 -13.433342l129.19629 0c3.5627441 0 6.979553 1.4152908 9.498779 3.9345322c2.519287 2.5192413 3.9345703 5.9360657 3.9345703 9.49881l0 53.731735c0 7.419037 -6.0143433 13.43335 -13.43335 13.43335l-129.19629 0c-7.4190674 0 -13.43335 -6.0143127 -13.43335 -13.43335z" fill-rule="evenodd"/><path fill="#fff2cc" d="m744.8097 143.24278l57.480347 0l0 38.771652l-57.480347 0z" fill-rule="evenodd"/><path stroke="#000000" stroke-width="1.0" stroke-linejoin="round" stroke-linecap="butt" d="m744.8097 143.24278l57.480347 0l0 38.771652l-57.480347 0z" fill-rule="evenodd"/><path fill="#000000" d="m765.17926 169.5486l0 -1.453125q-0.53125 0.78125 -1.390625 1.234375q-0.859375 0.4375 -1.8125 0.4375q-0.96875 0 -1.75 -0.421875q-0.765625 -0.4375 -1.125 -1.203125q-0.34375 -0.78125 -0.34375 -2.140625l0 -6.125l2.5625 0l0 4.4375q0 2.046875 0.140625 2.515625q0.140625 0.453125 0.515625 0.71875q0.375 0.265625 0.953125 0.265625q0.65625 0 1.171875 -0.359375q0.515625 -0.359375 0.703125 -0.890625q0.203125 -0.53125 0.203125 -2.609375l0 -4.078125l2.546875 0l0 9.671875l-2.375 0zm3.520996 3.6875l0 -1.65625l10.640625 0l0 1.65625l-10.640625 0zm16.360107 -3.6875l0 -2.6875l-5.46875 0l0 -2.234375l5.796875 -8.484375l2.15625 0l0 8.46875l1.65625 0l0 2.25l-1.65625 0l0 2.6875l-2.484375 0zm0 -4.9375l0 -4.5625l-3.078125 4.5625l3.078125 0z" fill-rule="nonzero"/><path fill="#fff2cc" d="m664.2428 143.24278l57.480286 0l0 38.771652l-57.480286 0z" fill-rule="evenodd"/><path stroke="#000000" stroke-width="1.0" stroke-linejoin="round" stroke-linecap="butt" d="m664.2428 143.24278l57.480286 0l0 38.771652l-57.480286 0z" fill-rule="evenodd"/><path fill="#000000" d="m680.6694 162.82985l-2.328125 -0.421875q0.40625 -1.40625 1.359375 -2.078125q0.953125 -0.671875 2.84375 -0.671875q1.703125 0 2.546875 0.40625q0.84375 0.40625 1.171875 1.03125q0.34375 0.625 0.34375 2.28125l-0.015625 3.0q0 1.265625 0.109375 1.875q0.125 0.609375 0.46875 1.296875l-2.53125 0q-0.109375 -0.25 -0.25 -0.75q-0.0625 -0.234375 -0.09375 -0.3125q-0.65625 0.640625 -1.40625 0.96875q-0.734375 0.3125 -1.59375 0.3125q-1.484375 0 -2.34375 -0.8125q-0.859375 -0.8125 -0.859375 -2.046875q0 -0.828125 0.390625 -1.46875q0.390625 -0.640625 1.09375 -0.96875q0.703125 -0.34375 2.03125 -0.609375q1.796875 -0.328125 2.484375 -0.625l0 -0.25q0 -0.75 -0.359375 -1.0625q-0.359375 -0.3125 -1.375 -0.3125q-0.6875 0 -1.078125 0.28125q-0.375 0.265625 -0.609375 0.9375zm3.421875 2.078125q-0.484375 0.15625 -1.5625 0.390625q-1.0625 0.21875 -1.390625 0.4375q-0.5 0.359375 -0.5 0.90625q0 0.53125 0.40625 0.9375q0.40625 0.390625 1.015625 0.390625q0.703125 0 1.328125 -0.46875q0.46875 -0.34375 0.609375 -0.84375q0.09375 -0.328125 0.09375 -1.25l0 -0.5zm3.5319824 8.328125l0 -1.65625l10.640625 0l0 1.65625l-10.640625 0zm16.360046 -3.6875l0 -2.6875l-5.46875 0l0 -2.234375l5.796875 -8.484375l2.15625 0l0 8.46875l1.65625 0l0 2.25l-1.65625 0l0 2.6875l-2.484375 0zm0 -4.9375l0 -4.5625l-3.078125 4.5625l3.078125 0z" fill-rule="nonzero"/><path fill="#000000" fill-opacity="0.0" d="m744.8097 162.62862l-23.086609 0" fill-rule="evenodd"/><path stroke="#000000" stroke-width="1.0" stroke-linejoin="round" stroke-linecap="butt" d="m744.8097 162.62862l-17.086609 0" fill-rule="evenodd"/><path fill="#000000" stroke="#000000" stroke-width="1.0" stroke-linecap="butt" d="m727.7231 160.97688l-4.538086 1.6517334l4.538086 1.6517181z" fill-rule="evenodd"/><path fill="#000000" fill-opacity="0.0" d="m773.54987 182.01443l0 102.70865" fill-rule="evenodd"/><path stroke="#000000" stroke-width="1.0" stroke-linejoin="round" stroke-linecap="butt" d="m773.54987 182.01443l0 96.70865" fill-rule="evenodd"/><path fill="#000000" stroke="#000000" stroke-width="1.0" stroke-linecap="butt" d="m771.89813 278.72308l1.6517334 4.5381165l1.6517334 -4.5381165z" fill-rule="evenodd"/><path fill="#000000" fill-opacity="0.0" d="m458.26642 141.7021l40.283447 61.826767" fill-rule="evenodd"/><path stroke="#000000" stroke-width="1.0" stroke-linejoin="round" stroke-linecap="butt" d="m458.26642 141.7021l37.008026 56.799683" fill-rule="evenodd"/><path fill="#000000" stroke="#000000" stroke-width="1.0" stroke-linecap="butt" d="m493.89053 199.40347l3.861267 2.9005432l-1.0934448 -4.7039185z" fill-rule="evenodd"/></g></svg>